# Blender v2.93.5 OBJ File: ''
# www.blender.org
mtllib nose.mtl
o Cone
v 1.285344 6.315972 -0.231449
v 1.285344 6.270819 -0.227002
v 1.285344 6.227401 -0.213831
v 1.285344 6.187386 -0.192443
v 1.285344 6.152313 -0.163659
v 1.285344 6.123529 -0.128586
v 1.285344 6.102141 -0.088572
v 1.285344 6.088971 -0.045153
v 1.285344 6.084523 -0.000000
v 2.392587 6.315972 0.000000
v 1.285344 6.088971 0.045153
v 1.285344 6.102141 0.088572
v 1.285344 6.123529 0.128586
v 1.285344 6.152313 0.163659
v 1.285344 6.187386 0.192443
v 1.285344 6.227401 0.213831
v 1.285344 6.270819 0.227002
v 1.285344 6.315972 0.231449
v 1.285344 6.361126 0.227002
v 1.285344 6.404544 0.213831
v 1.285344 6.444559 0.192443
v 1.285344 6.479631 0.163659
v 1.285344 6.508415 0.128586
v 1.285344 6.529803 0.088572
v 1.285344 6.542974 0.045153
v 1.285344 6.547421 -0.000000
v 1.285344 6.542974 -0.045154
v 1.285344 6.529803 -0.088572
v 1.285344 6.508415 -0.128586
v 1.285344 6.479631 -0.163659
v 1.285344 6.444558 -0.192443
v 1.285344 6.404544 -0.213831
v 1.285344 6.361125 -0.227002
vt 0.463920 0.581431
vt 0.731960 1.000000
vt 0.438775 0.604543
vt 0.462304 0.398711
vt 0.757901 0.000000
vt 0.491955 0.422495
vt 0.495103 0.559790
vt 0.531125 0.540451
vt 0.570601 0.524157
vt 0.612015 0.511533
vt 0.653774 0.503067
vt 0.694275 0.499082
vt 0.731960 0.499731
vt 0.763143 0.559790
vt 1.000000 1.000000
vt 0.731960 0.581431
vt 0.799165 0.540451
vt 0.838641 0.524157
vt 0.880054 0.511533
vt 0.921814 0.503067
vt 0.962315 0.499082
vt 1.000000 0.499731
vt 0.255500 0.949429
vt 0.293186 0.448511
vt 0.293186 0.948780
vt 0.214999 0.945444
vt 0.173240 0.936977
vt 0.131826 0.924354
vt 0.092350 0.908060
vt 0.056328 0.888721
vt 0.025146 0.867080
vt 0.000000 0.843968
vt 0.724204 0.499082
vt 0.757901 0.496187
vt 0.686565 0.497078
vt 0.646429 0.490251
vt 0.605338 0.478866
vt 0.564873 0.463358
vt 0.526588 0.444324
vt 0.438775 0.373885
vt 0.000000 0.246343
vt 0.000000 0.202168
vt 0.008431 0.158843
vt 0.024969 0.118031
vt 0.048978 0.081301
vt 0.079536 0.050065
vt 0.115468 0.025523
vt 0.155394 0.008618
vt 0.197780 0.000000
vt 0.240995 0.000000
vt 0.283380 0.008618
vt 0.323306 0.025523
vt 0.359239 0.050065
vt 0.389797 0.081301
vt 0.413806 0.118031
vt 0.430344 0.158842
vt 0.438775 0.202168
vt 0.438775 0.246343
vt 0.430344 0.289668
vt 0.413806 0.330480
vt 0.389797 0.367210
vt 0.359239 0.398446
vt 0.323306 0.422988
vt 0.283380 0.439893
vt 0.240995 0.448511
vt 0.197779 0.448511
vt 0.155394 0.439893
vt 0.115468 0.422988
vt 0.079536 0.398446
vt 0.048978 0.367210
vt 0.024969 0.330480
vt 0.008431 0.289668
vn 0.2037 0.2842 -0.9369
vn 0.2037 -0.0960 -0.9743
vn 0.2037 0.4615 -0.8634
vn 0.2037 0.6211 -0.7568
vn 0.2037 0.7568 -0.6211
vn 0.2037 0.8634 -0.4615
vn 0.2037 0.9369 -0.2842
vn 0.2037 0.9743 -0.0960
vn 0.2037 0.9743 0.0960
vn 0.2037 0.9369 0.2842
vn 0.2037 0.8634 0.4615
vn 0.2037 0.7568 0.6211
vn 0.2037 0.6211 0.7568
vn 0.2037 0.4615 0.8634
vn 0.2037 0.2842 0.9369
vn 0.2037 0.0960 0.9743
vn 0.2037 -0.0960 0.9743
vn 0.2037 -0.2842 0.9369
vn 0.2037 -0.4615 0.8634
vn 0.2037 -0.6211 0.7568
vn 0.2037 -0.7568 0.6211
vn 0.2037 -0.8634 0.4615
vn 0.2037 -0.9369 0.2842
vn 0.2037 -0.9743 0.0960
vn 0.2037 -0.9743 -0.0960
vn 0.2037 -0.9369 -0.2842
vn 0.2037 -0.8634 -0.4615
vn 0.2037 -0.7568 -0.6211
vn 0.2037 -0.6211 -0.7568
vn 0.2037 -0.4615 -0.8634
vn 0.2037 0.0960 -0.9743
vn 0.2037 -0.2842 -0.9369
vn -1.0000 -0.0000 0.0000
usemtl orange
s off
f 32/1/1 10/2/1 33/3/1
f 1/4/2 10/5/2 2/6/2
f 31/7/3 10/2/3 32/1/3
f 30/8/4 10/2/4 31/7/4
f 29/9/5 10/2/5 30/8/5
f 28/10/6 10/2/6 29/9/6
f 27/11/7 10/2/7 28/10/7
f 26/12/8 10/2/8 27/11/8
f 25/13/9 10/2/9 26/12/9
f 24/14/10 10/15/10 25/16/10
f 23/17/11 10/15/11 24/14/11
f 22/18/12 10/15/12 23/17/12
f 21/19/13 10/15/13 22/18/13
f 20/20/14 10/15/14 21/19/14
f 19/21/15 10/15/15 20/20/15
f 18/22/16 10/15/16 19/21/16
f 17/23/17 10/24/17 18/25/17
f 16/26/18 10/24/18 17/23/18
f 15/27/19 10/24/19 16/26/19
f 14/28/20 10/24/20 15/27/20
f 13/29/21 10/24/21 14/28/21
f 12/30/22 10/24/22 13/29/22
f 11/31/23 10/24/23 12/30/23
f 9/32/24 10/24/24 11/31/24
f 8/33/25 10/5/25 9/34/25
f 7/35/26 10/5/26 8/33/26
f 6/36/27 10/5/27 7/35/27
f 5/37/28 10/5/28 6/36/28
f 4/38/29 10/5/29 5/37/29
f 3/39/30 10/5/30 4/38/30
f 33/40/31 10/5/31 1/4/31
f 2/6/32 10/5/32 3/39/32
f 1/41/33 2/42/33 3/43/33 4/44/33 5/45/33 6/46/33 7/47/33 8/48/33 9/49/33 11/50/33 12/51/33 13/52/33 14/53/33 15/54/33 16/55/33 17/56/33 18/57/33 19/58/33 20/59/33 21/60/33 22/61/33 23/62/33 24/63/33 25/64/33 26/65/33 27/66/33 28/67/33 29/68/33 30/69/33 31/70/33 32/71/33 33/72/33
