# Blender v2.93.5 OBJ File: ''
# www.blender.org
mtllib scarf.mtl
o Cylinder.007
v 0.250188 4.173661 -2.324923
v 0.250188 5.207846 -1.178984
v 0.490761 4.099883 -2.282238
v 0.490761 5.134067 -1.136299
v 0.264926 5.256965 -1.207403
v 0.264926 4.222781 -2.353342
v 0.505500 4.149002 -2.310656
v 0.505500 5.183187 -1.164717
v -0.235830 5.289706 -2.329805
v 0.291037 5.355204 -1.017845
v -0.011627 5.198801 -2.417071
v 0.515240 5.264298 -1.105110
v 0.304075 5.415726 -1.024926
v -0.222792 5.350228 -2.336887
v 0.001411 5.259323 -2.424152
v 0.528278 5.324821 -1.112191
v 0.000000 5.013675 -1.282421
v 0.000000 5.484132 -1.282421
v 0.250188 5.013675 -1.257780
v 0.250188 5.484132 -1.257780
v 0.490761 5.013675 -1.184803
v 0.490761 5.484132 -1.184803
v 0.712475 5.013675 -1.066294
v 0.712475 5.484132 -1.066294
v 0.906809 5.013675 -0.906809
v 0.906809 5.484132 -0.906809
v 1.066294 5.013675 -0.712475
v 1.066294 5.484132 -0.712475
v 1.184803 5.013675 -0.490761
v 1.184803 5.484132 -0.490761
v 1.257780 5.013675 -0.250188
v 1.257780 5.484132 -0.250188
v 1.282421 5.013675 -0.000000
v 1.282421 5.484132 -0.000000
v 1.257780 5.013675 0.250188
v 1.257780 5.484132 0.250188
v 1.184803 5.013675 0.490761
v 1.184803 5.484132 0.490761
v 1.066294 5.013675 0.712475
v 1.066294 5.484132 0.712475
v 0.906809 5.013675 0.906809
v 0.906809 5.484132 0.906809
v 0.712475 5.013675 1.066294
v 0.712475 5.484132 1.066294
v 0.490761 5.013675 1.184803
v 0.490761 5.484132 1.184803
v 0.250188 5.013675 1.257780
v 0.250188 5.484132 1.257780
v -0.000000 5.013675 1.282421
v -0.000000 5.484132 1.282421
v -0.250188 5.013675 1.257780
v -0.250188 5.484132 1.257780
v -0.490762 5.013675 1.184802
v -0.490762 5.484132 1.184802
v -0.712476 5.013675 1.066294
v -0.712476 5.484132 1.066294
v -0.906809 5.013675 0.906808
v -0.906809 5.484132 0.906808
v -1.066295 5.013675 0.712474
v -1.066295 5.484132 0.712474
v -1.184803 5.013675 0.490760
v -1.184803 5.484132 0.490760
v -1.257780 5.013675 0.250187
v -1.257780 5.484132 0.250187
v -1.282421 5.013675 -0.000001
v -1.282421 5.484132 -0.000001
v -1.257779 5.013675 -0.250189
v -1.257779 5.484132 -0.250189
v -1.184802 5.013675 -0.490763
v -1.184802 5.484132 -0.490763
v -1.066293 5.013675 -0.712476
v -1.066293 5.484132 -0.712476
v -0.906807 5.013675 -0.906810
v -0.906807 5.484132 -0.906810
v -0.712474 5.013675 -1.066295
v -0.712474 5.484132 -1.066295
v -0.490760 5.013675 -1.184803
v -0.490760 5.484132 -1.184803
v -0.250186 5.013675 -1.257780
v -0.250186 5.484132 -1.257780
vt 0.976750 0.952006
vt 0.944121 0.998058
vt 0.944121 0.365450
vt 0.976750 0.319398
vt 0.904046 0.925035
vt 0.904046 0.289276
vt 0.940464 0.334113
vt 0.940464 0.969873
vt 0.939191 1.000000
vt 0.902772 0.955163
vt 0.988375 0.289276
vt 0.988375 0.936519
vt 0.976750 0.965482
vt 0.976751 0.318238
vt 0.988375 0.936519
vt 0.988375 0.289276
vt 1.000000 0.318239
vt 1.000000 0.965482
vt 0.940464 0.335328
vt 0.973094 0.289276
vt 0.046883 0.595920
vt 0.114105 0.574572
vt 0.114105 0.732657
vt 0.046883 0.754005
vt 0.228210 0.604861
vt 0.228210 0.762947
vt 0.160989 0.741599
vt 0.160989 0.583513
vt 0.271665 0.574572
vt 0.271665 0.635569
vt 0.250641 0.669018
vt 0.250641 0.608021
vt 0.000000 0.762947
vt 0.000000 0.604861
vt 0.250641 0.607499
vt 0.250641 0.669048
vt 0.228210 0.636121
vt 0.228210 0.574572
vt 0.774430 0.289276
vt 0.774430 0.577940
vt 0.737660 0.577947
vt 0.737660 0.289282
vt 0.701781 0.578001
vt 0.701781 0.289337
vt 0.668172 0.578103
vt 0.668172 0.289438
vt 0.638124 0.578246
vt 0.638123 0.289582
vt 0.901586 0.000000
vt 0.901586 0.288655
vt 0.871009 0.288843
vt 0.871009 0.000187
vt 0.837031 0.288971
vt 0.837031 0.000316
vt 0.800959 0.289037
vt 0.800958 0.000382
vt 0.764177 0.289037
vt 0.764177 0.000382
vt 0.728100 0.288972
vt 0.728100 0.000316
vt 0.694115 0.288843
vt 0.694115 0.000188
vt 0.663526 0.288656
vt 0.663526 0.000001
vt 0.638123 0.290085
vt 0.638123 0.578722
vt 0.611423 0.578403
vt 0.611423 0.289766
vt 0.580300 0.578156
vt 0.580300 0.289519
vt 0.545951 0.577991
vt 0.545951 0.289354
vt 0.509695 0.577913
vt 0.509695 0.289276
vt 0.472927 0.577925
vt 0.472927 0.289288
vt 0.437059 0.578028
vt 0.437059 0.289391
vt 0.403470 0.578216
vt 0.403470 0.289579
vt 0.373449 0.578484
vt 0.373449 0.289847
vt 0.663526 0.000620
vt 0.663526 0.289276
vt 0.637525 0.289037
vt 0.637525 0.000382
vt 0.606948 0.288850
vt 0.606948 0.000195
vt 0.572970 0.288721
vt 0.572970 0.000066
vt 0.536897 0.288655
vt 0.536897 0.000000
vt 0.500115 0.288655
vt 0.500115 0.000000
vt 0.464039 0.288721
vt 0.464039 0.000066
vt 0.430053 0.288850
vt 0.430053 0.000194
vt 0.399465 0.289037
vt 0.399465 0.000381
vt 0.373449 0.289275
vt 0.373449 0.000619
vt 0.902772 0.289712
vt 0.902772 0.578376
vt 0.876105 0.578205
vt 0.876105 0.289540
vt 0.845008 0.578072
vt 0.845008 0.289407
vt 0.168334 0.574572
vt 0.132259 0.569051
vt 0.098278 0.558223
vt 0.067695 0.542504
vt 0.041686 0.522496
vt 0.021252 0.498969
vt 0.007176 0.472828
vt 0.000000 0.445076
vt 0.000000 0.416781
vt 0.007176 0.389030
vt 0.021251 0.362888
vt 0.041686 0.339362
vt 0.067695 0.319354
vt 0.098277 0.303634
vt 0.132259 0.292806
vt 0.168334 0.287286
vt 0.205115 0.287286
vt 0.241190 0.292806
vt 0.275172 0.303634
vt 0.305755 0.319354
vt 0.331763 0.339362
vt 0.352198 0.362888
vt 0.366274 0.389030
vt 0.373449 0.416781
vt 0.373449 0.445076
vt 0.366274 0.472828
vt 0.352198 0.498969
vt 0.331763 0.522496
vt 0.305755 0.542503
vt 0.275172 0.558223
vt 0.241190 0.569051
vt 0.205115 0.574572
vt 0.810676 0.289318
vt 0.810676 0.577982
vt 0.000000 0.157791
vt 0.000000 0.129495
vt 0.007176 0.101744
vt 0.021251 0.075603
vt 0.041686 0.052076
vt 0.067695 0.032068
vt 0.098277 0.016348
vt 0.132259 0.005520
vt 0.168334 0.000000
vt 0.205115 0.000000
vt 0.241190 0.005520
vt 0.275172 0.016348
vt 0.305755 0.032068
vt 0.331763 0.052076
vt 0.352198 0.075602
vt 0.366274 0.101744
vt 0.373449 0.129495
vt 0.373449 0.157790
vt 0.366274 0.185542
vt 0.352198 0.211683
vt 0.331763 0.235210
vt 0.305755 0.255218
vt 0.275172 0.270938
vt 0.241190 0.281766
vt 0.205115 0.287286
vt 0.168334 0.287286
vt 0.132259 0.281766
vt 0.098277 0.270938
vt 0.067694 0.255218
vt 0.041686 0.235210
vt 0.021251 0.211683
vt 0.007176 0.185542
vn -0.3274 -0.7015 0.6330
vn 0.3274 0.7015 -0.6330
vn -0.0000 -0.5008 -0.8656
vn -0.9665 0.1905 -0.1719
vn 0.9665 -0.1905 0.1719
vn 0.0000 0.5008 0.8656
vn -0.3120 -0.9344 0.1719
vn 0.3119 0.9344 -0.1719
vn -0.3725 -0.0283 -0.9276
vn -0.9057 0.2363 0.3519
vn 0.9057 -0.2363 -0.3519
vn 0.3725 0.0283 0.9276
vn 0.0980 0.0000 -0.9952
vn 0.2903 0.0000 -0.9569
vn 0.4714 0.0000 -0.8819
vn 0.6344 0.0000 -0.7730
vn 0.7730 0.0000 -0.6344
vn 0.8819 0.0000 -0.4714
vn 0.9569 0.0000 -0.2903
vn 0.9952 0.0000 -0.0980
vn 0.9952 0.0000 0.0980
vn 0.9569 0.0000 0.2903
vn 0.8819 0.0000 0.4714
vn 0.7730 0.0000 0.6344
vn 0.6344 0.0000 0.7730
vn 0.4714 0.0000 0.8819
vn 0.2903 0.0000 0.9569
vn 0.0980 0.0000 0.9952
vn -0.0980 0.0000 0.9952
vn -0.2903 0.0000 0.9569
vn -0.4714 0.0000 0.8819
vn -0.6344 0.0000 0.7730
vn -0.7730 0.0000 0.6344
vn -0.8819 0.0000 0.4714
vn -0.9569 0.0000 0.2903
vn -0.9952 0.0000 0.0980
vn -0.9952 0.0000 -0.0980
vn -0.9569 0.0000 -0.2903
vn -0.8819 0.0000 -0.4714
vn -0.7730 0.0000 -0.6344
vn -0.6344 0.0000 -0.7730
vn -0.4714 0.0000 -0.8819
vn 0.0000 1.0000 -0.0000
vn -0.0980 0.0000 -0.9952
vn -0.2903 0.0000 -0.9569
vn 0.0000 -1.0000 0.0000
usemtl scarf
s off
f 1/1/1 3/2/1 4/3/1 2/4/1
f 6/5/2 5/6/2 8/7/2 7/8/2
f 3/9/3 1/10/3 6/5/3 7/8/3
f 1/11/4 2/12/4 5/13/4 6/14/4
f 4/15/5 3/16/5 7/17/5 8/18/5
f 2/4/6 4/3/6 8/19/6 5/20/6
f 9/21/7 11/22/7 12/23/7 10/24/7
f 14/25/8 13/26/8 16/27/8 15/28/8
f 11/29/9 9/30/9 14/31/9 15/32/9
f 9/21/10 10/24/10 13/33/10 14/34/10
f 12/23/11 11/22/11 15/28/11 16/27/11
f 10/35/12 12/36/12 16/37/12 13/38/12
f 17/39/13 18/40/13 20/41/13 19/42/13
f 19/42/14 20/41/14 22/43/14 21/44/14
f 21/44/15 22/43/15 24/45/15 23/46/15
f 23/46/16 24/45/16 26/47/16 25/48/16
f 25/49/17 26/50/17 28/51/17 27/52/17
f 27/52/18 28/51/18 30/53/18 29/54/18
f 29/54/19 30/53/19 32/55/19 31/56/19
f 31/56/20 32/55/20 34/57/20 33/58/20
f 33/58/21 34/57/21 36/59/21 35/60/21
f 35/60/22 36/59/22 38/61/22 37/62/22
f 37/62/23 38/61/23 40/63/23 39/64/23
f 39/65/24 40/66/24 42/67/24 41/68/24
f 41/68/25 42/67/25 44/69/25 43/70/25
f 43/70/26 44/69/26 46/71/26 45/72/26
f 45/72/27 46/71/27 48/73/27 47/74/27
f 47/74/28 48/73/28 50/75/28 49/76/28
f 49/76/29 50/75/29 52/77/29 51/78/29
f 51/78/30 52/77/30 54/79/30 53/80/30
f 53/80/31 54/79/31 56/81/31 55/82/31
f 55/83/32 56/84/32 58/85/32 57/86/32
f 57/86/33 58/85/33 60/87/33 59/88/33
f 59/88/34 60/87/34 62/89/34 61/90/34
f 61/90/35 62/89/35 64/91/35 63/92/35
f 63/92/36 64/91/36 66/93/36 65/94/36
f 65/94/37 66/93/37 68/95/37 67/96/37
f 67/96/38 68/95/38 70/97/38 69/98/38
f 69/98/39 70/97/39 72/99/39 71/100/39
f 71/100/40 72/99/40 74/101/40 73/102/40
f 73/103/41 74/104/41 76/105/41 75/106/41
f 75/106/42 76/105/42 78/107/42 77/108/42
f 20/109/43 18/110/43 80/111/43 78/112/43 76/113/43 74/114/43 72/115/43 70/116/43 68/117/43 66/118/43 64/119/43 62/120/43 60/121/43 58/122/43 56/123/43 54/124/43 52/125/43 50/126/43 48/127/43 46/128/43 44/129/43 42/130/43 40/131/43 38/132/43 36/133/43 34/134/43 32/135/43 30/136/43 28/137/43 26/138/43 24/139/43 22/140/43
f 79/141/44 80/142/44 18/40/44 17/39/44
f 77/108/45 78/107/45 80/142/45 79/141/45
f 17/143/46 19/144/46 21/145/46 23/146/46 25/147/46 27/148/46 29/149/46 31/150/46 33/151/46 35/152/46 37/153/46 39/154/46 41/155/46 43/156/46 45/157/46 47/158/46 49/159/46 51/160/46 53/161/46 55/162/46 57/163/46 59/164/46 61/165/46 63/166/46 65/167/46 67/168/46 69/169/46 71/170/46 73/171/46 75/172/46 77/173/46 79/174/46
