# Blender v2.93.5 OBJ File: ''
# www.blender.org
mtllib box2.mtl
o Caixa_1.003_Cube.007
v 2.714390 0.002402 2.955562
v 2.714390 0.112178 2.955562
v 2.609322 0.112178 2.965085
v 2.609322 0.002402 2.965085
v 2.819852 0.002402 2.950388
v 2.819852 0.112179 2.950388
v 2.714784 0.112178 2.959911
v 2.714784 0.002402 2.959911
v 2.924526 0.002403 2.936517
v 2.924526 0.112179 2.936517
v 2.819458 0.112179 2.946040
v 2.819458 0.002402 2.946040
v 2.714390 0.221955 2.955562
v 2.609322 0.221955 2.965085
v 2.819852 0.221955 2.950388
v 2.714784 0.221955 2.959911
v 2.924526 0.221955 2.936517
v 2.819458 0.221955 2.946039
v 2.714390 0.331731 2.955562
v 2.609322 0.331731 2.965085
v 2.819852 0.331731 2.950388
v 2.714784 0.331731 2.959911
v 2.924526 0.331732 2.936517
v 2.819458 0.331731 2.946039
v 2.915166 0.002402 2.833178
v 2.915166 0.112179 2.833178
v 2.910227 0.002402 2.729438
v 2.910227 0.112178 2.729438
v 2.919587 0.112179 2.832777
v 2.919587 0.002402 2.832777
v 2.896446 0.002402 2.626499
v 2.896445 0.112178 2.626499
v 2.905806 0.112178 2.729838
v 2.905806 0.002402 2.729839
v 2.915166 0.221955 2.833178
v 2.910227 0.221955 2.729438
v 2.919587 0.221955 2.832777
v 2.896445 0.221955 2.626499
v 2.905805 0.221955 2.729838
v 2.915165 0.331731 2.833178
v 2.910227 0.331731 2.729438
v 2.919587 0.331731 2.832777
v 2.896445 0.331731 2.626499
v 2.905805 0.331731 2.729838
v 2.791378 0.002402 2.636022
v 2.791378 0.112178 2.636022
v 2.685916 0.002401 2.641196
v 2.685915 0.112178 2.641196
v 2.790983 0.112178 2.631673
v 2.790984 0.002402 2.631673
v 2.581242 0.002401 2.655067
v 2.581242 0.112177 2.655067
v 2.686310 0.112178 2.645544
v 2.686310 0.002401 2.645544
v 2.791377 0.221954 2.636022
v 2.685915 0.221954 2.641196
v 2.790983 0.221954 2.631673
v 2.581241 0.221954 2.655067
v 2.686309 0.221954 2.645544
v 2.791377 0.331731 2.636022
v 2.685915 0.331730 2.641195
v 2.790983 0.331731 2.631673
v 2.581241 0.331730 2.655067
v 2.686309 0.331730 2.645544
v 2.590602 0.002401 2.758406
v 2.590602 0.112178 2.758406
v 2.595541 0.002402 2.862146
v 2.595540 0.112178 2.862146
v 2.586180 0.112178 2.758807
v 2.586180 0.002401 2.758807
v 2.599962 0.112178 2.861745
v 2.599962 0.002402 2.861745
v 2.590601 0.221954 2.758406
v 2.595540 0.221954 2.862146
v 2.586180 0.221954 2.758807
v 2.599962 0.221954 2.861745
v 2.590601 0.331730 2.758406
v 2.595540 0.331731 2.862146
v 2.586180 0.331730 2.758807
v 2.599962 0.331731 2.861745
v 2.590221 0.331730 2.758440
v 2.599581 0.331731 2.861780
v 2.590221 0.221954 2.758440
v 2.705030 0.002004 2.852223
v 2.705030 -0.002218 2.852223
v 2.714390 -0.002217 2.955562
v 2.714390 0.002005 2.955562
v 2.590221 0.002401 2.758441
v 2.590221 0.112178 2.758440
v 2.791378 0.002004 2.636022
v 2.791378 -0.002218 2.636022
v 2.686310 -0.002218 2.645544
v 2.686310 0.002004 2.645544
v 2.800738 0.002004 2.739361
v 2.800738 -0.002218 2.739361
v 2.695670 -0.002218 2.748884
v 2.695670 0.002004 2.748884
v 2.590602 -0.002218 2.758406
v 2.590602 0.002004 2.758406
v 2.599962 0.002004 2.861745
v 2.599962 -0.002218 2.861745
v 2.695670 0.002402 2.748884
v 2.800738 0.002402 2.739361
v 2.810098 -0.002217 2.842700
v 2.905806 -0.002217 2.729839
v 2.915166 -0.002217 2.833178
v 2.705030 0.002402 2.852223
v 2.819458 -0.002217 2.946040
v 2.810098 0.002402 2.842700
v 2.819492 0.112179 2.946414
v 2.819492 0.002402 2.946414
v 2.714424 0.002402 2.955936
v 2.714424 0.112178 2.955936
v 2.819492 0.221955 2.946414
v 2.714424 0.221955 2.955936
v 2.819492 0.331731 2.946414
v 2.714424 0.331731 2.955936
v 2.906186 0.112178 2.729804
v 2.906186 0.002402 2.729804
v 2.915546 0.002402 2.833143
v 2.915546 0.112179 2.833143
v 2.906186 0.221955 2.729804
v 2.915546 0.221955 2.833143
v 2.906186 0.331731 2.729804
v 2.915546 0.331731 2.833143
v 2.686275 0.112178 2.645170
v 2.686276 0.002401 2.645170
v 2.791344 0.002402 2.635648
v 2.791343 0.112178 2.635648
v 2.686275 0.221954 2.645170
v 2.791343 0.221954 2.635648
v 2.686275 0.331730 2.645170
v 2.791343 0.331731 2.635647
v 2.599581 0.112178 2.861780
v 2.599581 0.002402 2.861780
v 2.599581 0.221954 2.861780
v 2.819458 0.002005 2.946040
v 2.905806 0.002005 2.729839
v 2.915166 0.002005 2.833178
v 2.810098 0.002005 2.842700
v 2.819458 0.332129 2.946039
v 2.714390 0.332129 2.955562
v 2.905805 0.332129 2.729838
v 2.915165 0.332129 2.833178
v 2.686309 0.332128 2.645544
v 2.791377 0.332128 2.636022
v 2.590601 0.332128 2.758406
v 2.599962 0.332128 2.861745
vt 0.640302 0.524624
vt 0.640302 0.349750
vt 0.808591 0.349750
vt 0.808591 0.524625
vt 0.640302 0.174875
vt 0.808591 0.174875
vt 0.640302 0.000000
vt 0.808591 0.000000
vt 0.808591 0.524625
vt 0.808591 0.349750
vt 0.974110 0.349750
vt 0.974110 0.524624
vt 0.808591 0.174875
vt 0.974110 0.174875
vt 0.808591 0.000000
vt 0.974110 0.000000
vt 0.472014 0.524625
vt 0.472014 0.349750
vt 0.640302 0.349750
vt 0.640302 0.524624
vt 0.472014 0.174875
vt 0.640302 0.174875
vt 0.472014 0.000000
vt 0.640302 0.000000
vt 0.165519 0.475376
vt 0.165519 0.650250
vt 0.000000 0.650250
vt 0.000000 0.475375
vt 0.165519 0.825125
vt 0.000000 0.825125
vt 0.165519 1.000000
vt 0.000000 1.000000
vt 0.993527 0.174875
vt 0.987055 0.174875
vt 0.987055 0.000000
vt 0.993527 0.000000
vt 0.244863 0.475375
vt 0.251598 0.475375
vt 0.251598 0.640670
vt 0.244863 0.640670
vt 0.993527 0.524624
vt 0.987055 0.524624
vt 0.987055 0.349750
vt 0.993527 0.349750
vt 0.211188 0.643436
vt 0.204453 0.643436
vt 0.204453 0.475375
vt 0.211188 0.475375
vt 0.244863 0.640670
vt 0.238128 0.640670
vt 0.238128 0.475375
vt 0.244863 0.475375
vt 0.251598 0.475375
vt 0.258333 0.475375
vt 0.258333 0.640670
vt 0.251598 0.640670
vt 0.224658 0.643436
vt 0.217923 0.643436
vt 0.217923 0.475375
vt 0.224658 0.475375
vt 0.197718 0.475375
vt 0.204453 0.475375
vt 0.204453 0.643436
vt 0.197718 0.643436
vt 0.118003 0.003911
vt 0.236007 0.119822
vt 0.118003 0.239643
vt 0.000000 0.123733
vt 0.236007 0.355554
vt 0.118003 0.475375
vt 0.000000 0.359465
vt 0.354010 0.235732
vt 0.354010 0.000000
vt 0.472014 0.115910
vt 0.472014 0.351642
vt 0.354010 0.471464
vt 0.217923 0.643436
vt 0.211188 0.643436
vt 0.211188 0.475375
vt 0.217923 0.475375
vt 0.258333 0.475375
vt 0.265068 0.475375
vt 0.265068 0.640670
vt 0.258333 0.640670
vt 0.197718 0.643436
vt 0.190983 0.643436
vt 0.190983 0.475375
vt 0.197718 0.475375
vt 0.974110 0.174875
vt 0.980582 0.174875
vt 0.980582 0.349750
vt 0.974110 0.349750
vt 0.265068 0.475375
vt 0.271803 0.475375
vt 0.271803 0.640670
vt 0.265068 0.640670
vt 0.974110 0.000000
vt 0.980582 0.000000
vt 0.238128 0.640670
vt 0.231393 0.640670
vt 0.231393 0.475375
vt 0.238128 0.475375
vt 0.224658 0.475375
vt 0.231393 0.643436
vt 0.224658 0.643436
vt 0.291114 0.643436
vt 0.284748 0.643436
vt 0.284748 0.475375
vt 0.291114 0.475376
vt 0.165519 0.825125
vt 0.171885 0.825125
vt 0.171885 1.000000
vt 0.165519 1.000000
vt 0.184617 1.000000
vt 0.178251 1.000000
vt 0.178251 0.825125
vt 0.184617 0.825125
vt 0.165519 0.650250
vt 0.171885 0.650250
vt 0.178251 0.650250
vt 0.184617 0.650250
vt 0.165519 0.475375
vt 0.171885 0.475375
vt 0.178251 0.475375
vt 0.184617 0.475375
vt 0.284748 0.640670
vt 0.278276 0.640670
vt 0.278276 0.475376
vt 0.284748 0.475375
vt 0.980582 0.349750
vt 0.987055 0.349750
vt 0.987055 0.524624
vt 0.980582 0.524624
vt 1.000000 0.524624
vt 0.993527 0.524624
vt 0.993527 0.349750
vt 1.000000 0.349750
vt 0.980582 0.174875
vt 0.987055 0.174875
vt 0.993527 0.174875
vt 1.000000 0.174875
vt 0.980582 0.000000
vt 0.987055 0.000000
vt 0.993527 0.000000
vt 1.000000 0.000000
vt 0.297480 0.643436
vt 0.291114 0.643436
vt 0.291114 0.475375
vt 0.297480 0.475376
vt 0.190983 0.650250
vt 0.184617 0.650250
vt 0.184617 0.475375
vt 0.190983 0.475375
vt 0.171885 0.475375
vt 0.178251 0.475375
vt 0.178251 0.650250
vt 0.171885 0.650250
vt 0.190983 0.825125
vt 0.184617 0.825125
vt 0.178251 0.825125
vt 0.171885 0.825125
vt 0.190983 1.000000
vt 0.184617 1.000000
vt 0.178251 1.000000
vt 0.171885 1.000000
vt 0.278276 0.640670
vt 0.271803 0.640670
vt 0.271803 0.475376
vt 0.278276 0.475375
vt 0.980582 0.524624
vt 0.974110 0.524624
vt 0.333333 0.000000
vt 0.333333 0.333333
vt 0.000000 0.333333
vt 0.000000 0.000000
vt 1.000000 0.000000
vt 1.000000 0.333333
vt 0.666667 0.333333
vt 0.666667 0.000000
vt 0.333333 0.666667
vt 0.000000 0.666667
vt 1.000000 0.666667
vt 0.666667 0.666667
vt 0.333333 1.000000
vt 0.000000 1.000000
vt 1.000000 1.000000
vt 0.666667 1.000000
vt 0.333333 0.000000
vt 0.333333 0.333333
vt 0.000000 0.333333
vt 0.000000 0.000000
vt 1.000000 0.000000
vt 1.000000 0.333333
vt 0.666667 0.333333
vt 0.666667 0.000000
vt 0.333333 0.666667
vt 0.000000 0.666667
vt 1.000000 0.666667
vt 0.666667 0.666667
vt 0.333333 1.000000
vt 0.000000 1.000000
vt 1.000000 1.000000
vt 0.666667 1.000000
vt 0.333333 0.000000
vt 0.333333 0.333333
vt 0.000000 0.333333
vt 0.000000 0.000000
vt 1.000000 0.000000
vt 1.000000 0.333333
vt 0.666667 0.333333
vt 0.666667 0.000000
vt 0.333333 0.666667
vt 0.000000 0.666667
vt 1.000000 0.666667
vt 0.666667 0.666667
vt 0.333333 1.000000
vt 0.000000 1.000000
vt 1.000000 1.000000
vt 0.666667 1.000000
vt 0.333333 0.000000
vt 0.333333 0.333333
vt 0.000000 0.333333
vt 0.000000 0.000000
vt 1.000000 0.000000
vt 1.000000 0.333333
vt 0.666667 0.333333
vt 0.666667 0.000000
vt 0.333333 0.666667
vt 0.000000 0.666667
vt 1.000000 0.666667
vt 0.666667 0.666667
vt 0.333333 1.000000
vt 0.000000 1.000000
vt 1.000000 1.000000
vt 0.666667 1.000000
vt 0.333333 1.000000
vt 0.333333 1.000000
vt 0.666667 1.000000
vt 0.666667 1.000000
vt 0.333333 0.000000
vt 0.333333 0.333333
vt 0.000000 0.333333
vt 1.000000 0.333333
vt 0.666667 0.333333
vt 0.666667 0.000000
vt 0.333333 0.666667
vt 0.333333 1.000000
vt 0.000000 1.000000
vt 0.000000 0.666667
vt 1.000000 0.666667
vt 1.000000 1.000000
vt 0.666667 1.000000
vt 0.666667 0.666667
vt 0.666667 0.333333
vt 0.666667 0.000000
vt 0.333333 0.000000
vt 0.333333 0.333333
vt 0.666667 0.666667
vt 0.333333 0.666667
vt 0.666667 1.000000
vt 0.333333 1.000000
vt 0.666667 0.333333
vt 0.666667 0.000000
vt 0.333333 0.000000
vt 0.333333 0.333333
vt 0.666667 0.666667
vt 0.333333 0.666667
vt 0.666667 1.000000
vt 0.333333 1.000000
vt 0.666667 0.333333
vt 0.666667 0.000000
vt 0.333333 0.000000
vt 0.333333 0.333333
vt 0.666667 0.666667
vt 0.333333 0.666667
vt 0.666667 1.000000
vt 0.333333 1.000000
vt 0.666667 0.333333
vt 0.666667 0.000000
vt 0.333333 0.000000
vt 0.333333 0.333333
vt 0.666667 0.666667
vt 0.333333 0.666667
vt 0.666667 0.333333
vt 0.666667 0.000000
vt 0.333333 0.000000
vt 0.333333 0.333333
vt 0.000000 0.333333
vt 0.000000 0.666667
vt 0.333333 0.666667
vt 1.000000 0.333333
vt 0.666667 0.666667
vt 1.000000 0.666667
vt 0.666667 1.000000
vt 0.333333 1.000000
vt 0.000000 0.000000
vt 1.000000 0.000000
vt 1.000000 1.000000
vt 0.000000 1.000000
vt 0.000000 0.000000
vt 1.000000 0.000000
vt 1.000000 1.000000
vt 0.000000 1.000000
vt 0.000000 0.000000
vt 1.000000 0.000000
vt 1.000000 1.000000
vt 0.000000 1.000000
vt 0.000000 0.000000
vt 1.000000 0.000000
vt 1.000000 1.000000
vt 0.000000 1.000000
vt 0.000000 0.000000
vt 1.000000 0.000000
vt 1.000000 1.000000
vt 0.000000 1.000000
vt 0.000000 0.000000
vt 1.000000 0.000000
vt 1.000000 1.000000
vt 0.000000 1.000000
vt 0.000000 0.000000
vt 1.000000 0.000000
vt 1.000000 1.000000
vt 0.000000 1.000000
vt 1.000000 0.000000
vt 1.000000 1.000000
vt 0.000000 1.000000
vt 1.000000 0.000000
vt 0.000000 1.000000
vt 1.000000 1.000000
vt 0.000000 1.000000
vt 1.000000 0.000000
vt 1.000000 1.000000
vt 1.000000 0.000000
vt 1.000000 1.000000
vt 1.000000 0.000000
vt 0.000000 1.000000
vt 1.000000 0.000000
vt 1.000000 1.000000
vt 0.000000 1.000000
vt 1.000000 0.000000
vt 1.000000 1.000000
vt 0.000000 1.000000
vt 1.000000 0.000000
vt 1.000000 1.000000
vt 0.000000 1.000000
vt 1.000000 1.000000
vt 0.000000 1.000000
vt 1.000000 0.000000
vt 0.000000 1.000000
vt 1.000000 0.000000
vt 1.000000 1.000000
vt 1.000000 1.000000
vt 0.000000 1.000000
vt 1.000000 0.000000
vt 1.000000 1.000000
vt 0.000000 1.000000
vt 1.000000 0.000000
vt 1.000000 1.000000
vt 1.000000 0.000000
vt 1.000000 1.000000
vt 0.000000 1.000000
vt 0.333333 1.000000
vt 0.666667 1.000000
vt 0.333333 1.000000
vt 0.666667 1.000000
vt 0.333333 1.000000
vt 0.666667 1.000000
vn 0.0903 0.0000 0.9959
vn 0.9959 0.0000 -0.0902
vn -0.0903 -0.0000 -0.9959
vn -0.9959 0.0000 0.0902
vn -0.0902 -0.0000 -0.9959
vn 0.0000 -1.0000 0.0000
vn 0.0902 0.0000 0.9959
vn -0.0000 1.0000 -0.0000
vn 0.9959 0.0000 -0.0901
vn -0.9959 0.0000 0.0900
vn -0.9959 -0.0000 0.0901
vn 0.9959 0.0000 -0.0904
vn -0.9959 -0.0000 0.0904
vn 0.0909 0.0000 0.9959
vn -0.0895 -0.0000 -0.9960
vn -0.9959 0.0000 0.0905
vn 0.0656 -0.6870 0.7237
vn 0.0656 0.6870 0.7237
vn 0.7181 -0.6929 -0.0650
vn 0.7183 0.6926 -0.0651
vn -0.0656 -0.6869 -0.7238
vn -0.0656 0.6869 -0.7237
vn -0.7181 -0.6929 0.0650
vn -0.9959 0.0000 0.0909
vn 0.9959 0.0000 -0.0907
vn 0.0904 0.0000 0.9959
vn 0.0889 0.0000 0.9960
vn -0.0905 0.0000 -0.9959
vn -0.0904 0.0000 -0.9959
vn -0.0889 0.0000 -0.9960
usemtl Laço.003
s off
f 5/1/1 6/2/1 7/3/1 8/4/1
f 6/2/1 15/5/1 16/6/1 7/3/1
f 15/5/1 21/7/1 22/8/1 16/6/1
f 27/9/2 28/10/2 29/11/2 30/12/2
f 28/10/2 36/13/2 37/14/2 29/11/2
f 36/13/2 41/15/2 42/16/2 37/14/2
f 47/17/3 48/18/3 49/19/3 50/20/3
f 48/18/3 56/21/3 57/22/3 49/19/3
f 56/21/3 61/23/3 62/24/3 57/22/3
f 67/25/4 68/26/4 69/27/4 70/28/4
f 68/26/4 74/29/4 75/30/4 69/27/4
f 74/29/4 78/31/4 79/32/4 75/30/4
f 83/33/3 75/34/3 79/35/3 81/36/3
f 84/37/4 85/38/4 86/39/4 87/40/4
f 88/41/5 70/42/5 69/43/5 89/44/5
f 90/45/3 91/46/3 92/47/3 93/48/3
f 94/49/2 95/50/2 91/51/2 90/52/2
f 93/53/4 92/54/4 96/55/4 97/56/4
f 97/57/3 96/58/3 98/59/3 99/60/3
f 100/61/1 101/62/1 85/63/1 84/64/1
f 91/65/6 95/66/6 96/67/6 92/68/6
f 96/67/6 85/69/6 101/70/6 98/71/6
f 95/66/6 104/72/6 85/69/6 96/67/6
f 105/73/6 106/74/6 104/72/6 95/66/6
f 104/72/6 108/75/6 86/76/6 85/69/6
f 87/77/1 86/78/1 108/79/1 137/80/1
f 99/81/4 98/82/4 101/83/4 100/84/4
f 138/85/3 105/86/3 95/87/3 94/88/3
f 136/89/1 74/90/1 68/91/1 134/92/1
f 139/93/2 106/94/2 105/95/2 138/96/2
f 82/97/1 78/98/1 74/90/1 136/89/1
f 137/99/2 108/100/2 104/101/2 140/102/2
f 140/103/1 104/101/1 106/104/1 139/105/1
f 89/44/3 69/43/3 75/34/3 83/33/3
f 111/106/6 5/107/6 8/108/6 112/109/6
f 110/110/2 6/111/2 5/112/2 111/113/2
f 112/114/4 8/115/4 7/116/4 113/117/4
f 114/118/2 15/119/2 6/111/2 110/110/2
f 113/117/4 7/116/4 16/120/4 115/121/4
f 116/122/2 21/123/2 15/119/2 114/118/2
f 115/121/4 16/120/4 22/124/4 117/125/4
f 119/126/6 27/127/6 30/128/6 120/129/6
f 118/130/5 28/131/5 27/132/5 119/133/5
f 120/134/7 30/135/7 29/136/7 121/137/7
f 122/138/5 36/139/5 28/131/5 118/130/5
f 121/137/1 29/136/1 37/140/1 123/141/1
f 124/142/3 41/143/3 36/139/3 122/138/3
f 123/141/1 37/140/1 42/144/1 125/145/1
f 127/146/6 47/147/6 50/148/6 128/149/6
f 126/150/4 48/151/4 47/152/4 127/153/4
f 128/154/2 50/155/2 49/156/2 129/157/2
f 130/158/4 56/159/4 48/151/4 126/150/4
f 129/157/2 49/156/2 57/160/2 131/161/2
f 132/162/4 61/163/4 56/159/4 130/158/4
f 131/161/2 57/160/2 62/164/2 133/165/2
f 135/166/6 67/167/6 70/168/6 88/169/6
f 134/92/7 68/91/7 67/170/7 135/171/7
usemtl Caixa.001
f 1/172/1 2/173/1 3/174/1 4/175/1
f 9/176/1 10/177/1 11/178/1 12/179/1
f 2/173/1 13/180/1 14/181/1 3/174/1
f 10/177/1 17/182/1 18/183/1 11/178/1
f 13/180/1 19/184/1 20/185/1 14/181/1
f 17/182/1 23/186/1 24/187/1 18/183/1
f 25/188/2 26/189/2 10/190/2 9/191/2
f 31/192/2 32/193/2 33/194/2 34/195/2
f 26/189/2 35/196/2 17/197/2 10/190/2
f 32/193/2 38/198/2 39/199/2 33/194/2
f 35/196/2 40/200/2 23/201/2 17/197/2
f 38/198/2 43/202/2 44/203/2 39/199/2
f 45/204/3 46/205/3 32/206/3 31/207/3
f 51/208/3 52/209/3 53/210/3 54/211/3
f 46/205/3 55/212/3 38/213/3 32/206/3
f 52/209/3 58/214/3 59/215/3 53/210/3
f 55/212/3 60/216/3 43/217/3 38/213/3
f 58/214/3 63/218/3 64/219/3 59/215/3
f 65/220/4 66/221/4 52/222/4 51/223/4
f 4/224/4 3/225/4 71/226/4 72/227/4
f 66/221/4 73/228/4 58/229/4 52/222/4
f 3/225/4 14/230/4 76/231/4 71/226/4
f 73/228/4 77/232/4 63/233/4 58/229/4
f 14/230/4 20/234/4 80/235/4 76/231/4
f 81/236/8 79/237/8 78/238/8 82/239/8
f 54/240/6 102/241/6 65/242/6 51/223/6
f 31/192/6 34/243/6 103/244/6 45/245/6
f 107/246/6 1/247/6 4/248/6 72/249/6
f 25/250/6 9/251/6 12/252/6 109/253/6
f 11/178/9 110/254/9 111/255/9 12/179/9
f 1/172/10 112/256/10 113/257/10 2/173/10
f 18/183/9 114/258/9 110/254/9 11/178/9
f 2/173/11 113/257/11 115/259/11 13/180/11
f 24/187/12 116/260/12 114/258/12 18/183/12
f 13/180/13 115/259/13 117/261/13 19/184/13
f 33/194/5 118/262/5 119/263/5 34/195/5
f 25/188/14 120/264/14 121/265/14 26/189/14
f 39/199/15 122/266/15 118/262/15 33/194/15
f 26/189/1 121/265/1 123/267/1 35/196/1
f 44/203/5 124/268/5 122/266/5 39/199/5
f 35/196/1 123/267/1 125/269/1 40/200/1
f 53/210/16 126/270/16 127/271/16 54/211/16
f 45/204/12 128/272/12 129/273/12 46/205/12
f 59/215/13 130/274/13 126/270/13 53/210/13
f 46/205/12 129/273/12 131/275/12 55/212/12
f 64/219/11 132/276/11 130/274/11 59/215/11
f 55/212/9 131/275/9 133/277/9 60/216/9
f 71/226/7 134/278/7 135/279/7 72/227/7
f 65/220/5 88/280/5 89/281/5 66/221/5
f 76/231/1 136/282/1 134/278/1 71/226/1
f 66/221/5 89/281/5 83/283/5 73/228/5
f 80/235/7 82/239/7 136/282/7 76/231/7
f 73/228/3 83/283/3 81/236/3 77/232/3
f 103/244/2 94/284/2 90/285/2 45/245/2
f 54/240/4 93/286/4 97/287/4 102/241/4
f 102/241/3 97/287/3 99/288/3 65/242/3
f 72/249/1 100/289/1 84/290/1 107/246/1
f 34/243/3 138/291/3 94/284/3 103/244/3
f 109/253/1 140/292/1 139/293/1 25/250/1
f 12/252/2 137/294/2 140/292/2 109/253/2
f 87/295/4 1/247/4 107/246/4 84/290/4
f 87/296/17 137/297/17 111/298/17 112/299/17
f 141/300/18 142/301/18 117/302/18 116/303/18
f 139/304/19 138/305/19 119/306/19 120/307/19
f 143/308/20 144/309/20 125/310/20 124/311/20
f 90/312/21 93/313/21 127/314/21 128/315/21
f 145/316/22 146/317/22 133/318/22 132/319/22
f 135/320/23 88/321/23 99/322/23 100/323/23
f 112/324/11 1/325/11 87/326/11
f 19/327/24 117/302/24 142/328/24
f 137/297/9 12/329/9 111/330/9
f 24/331/25 141/332/25 116/303/25
f 25/333/26 139/334/26 120/307/26
f 40/335/27 125/310/27 144/336/27
f 119/337/28 138/338/28 34/339/28
f 143/340/29 124/341/29 44/342/29
f 90/343/9 128/344/9 45/345/9
f 146/317/9 60/346/9 133/347/9
f 54/348/11 127/314/11 93/349/11
f 64/350/4 145/351/4 132/319/4
f 88/321/30 65/352/30 99/353/30
f 147/354/28 77/355/28 81/356/28
f 72/357/26 135/358/26 100/323/26
f 148/359/27 82/360/27 80/361/27
f 117/261/8 22/362/8 21/363/8 116/260/8
f 125/269/8 42/364/8 41/365/8 124/268/8
f 133/277/8 62/366/8 61/367/8 132/276/8
o Tampa_1.003_Plane.006
v 2.591713 0.337125 2.985010
v 2.940382 0.337125 2.954506
v 2.561209 0.337125 2.636342
v 2.909877 0.337125 2.605838
v 2.591713 0.267125 2.985010
v 2.940382 0.267125 2.954506
v 2.561209 0.267125 2.636342
v 2.909877 0.267125 2.605838
v 2.820597 0.337125 2.964986
v 2.790093 0.337125 2.616318
v 2.820597 0.267125 2.964986
v 2.790093 0.267125 2.616318
v 2.685053 0.337125 2.625507
v 2.685053 0.267125 2.625507
v 2.715557 0.337125 2.974175
v 2.715557 0.267125 2.974175
v 2.820902 0.340625 2.968472
v 2.789788 0.340625 2.612831
v 2.820902 0.267125 2.968472
v 2.789788 0.267125 2.612831
v 2.684748 0.340625 2.622020
v 2.684748 0.267125 2.622020
v 2.715862 0.340625 2.977662
v 2.715862 0.267125 2.977662
v 2.571933 0.337125 2.758921
v 2.920601 0.337125 2.728416
v 2.571933 0.267125 2.758921
v 2.920601 0.267125 2.728416
v 2.800817 0.337125 2.738896
v 2.695777 0.337125 2.748086
v 2.800726 0.340625 2.737861
v 2.695686 0.340625 2.747051
v 2.581073 0.337125 2.863390
v 2.581073 0.267125 2.863390
v 2.929741 0.337125 2.832885
v 2.929741 0.267125 2.832885
v 2.809957 0.337125 2.843365
v 2.704917 0.337125 2.852555
v 2.810049 0.340625 2.844419
v 2.705009 0.340625 2.853609
v 2.568447 0.340625 2.759226
v 2.924088 0.340625 2.728111
v 2.568447 0.267125 2.759226
v 2.924088 0.267125 2.728111
v 2.577586 0.340625 2.863695
v 2.577586 0.267125 2.863695
v 2.933228 0.340625 2.832580
v 2.933228 0.267125 2.832580
vn 0.0000 1.0000 0.0000
vn -0.0872 0.0000 -0.9962
vn 0.9962 0.0000 -0.0872
vn 0.0872 0.0000 0.9962
vn -0.9962 0.0000 0.0872
vn -0.9962 0.0000 0.0871
vn 0.0000 -1.0000 0.0000
vn 0.9962 0.0000 -0.0871
vn 0.9962 0.0001 -0.0872
vn -0.9962 -0.0001 0.0872
vn -0.0871 0.0000 -0.9962
vn 0.0820 -0.1515 0.9850
vn -0.0820 -0.1489 -0.9854
vn 0.0904 -0.1516 0.9843
vn -0.0902 -0.1488 -0.9847
usemtl Caixa.001
s off
f 177//31 174//31 152//31 158//31
f 161//32 162//32 155//32 151//32
f 174//33 176//33 156//33 152//33
f 157//34 159//34 154//34 150//34
f 181//35 182//35 153//35 149//35
f 152//32 156//32 160//32 158//32
f 173//31 178//31 161//31 151//31
f 149//34 153//34 164//34 163//34
f 151//35 155//35 175//35 173//35
f 157//31 150//31 183//31 185//31
f 150//33 154//33 184//33 183//33
f 149//31 163//31 186//31 181//31
usemtl Laço.003
f 186//35 163//35 171//35 188//35
f 163//35 164//35 172//35 171//35
f 162//36 161//36 169//36 170//36
f 171//34 172//34 167//34 165//34
f 180//31 179//31 166//31 169//31
f 166//32 168//32 170//32 169//32
f 160//37 162//37 170//37 168//37
f 177//33 158//33 166//33 179//33
f 158//38 160//38 168//38 166//38
f 159//38 157//38 165//38 167//38
f 164//37 159//37 167//37 172//37
f 185//39 177//39 179//39 187//39
f 188//31 187//31 179//31 180//31
f 161//35 178//35 180//35 169//35
f 183//34 184//34 196//34 195//34
f 171//31 165//31 187//31 188//31
f 157//33 185//33 187//33 165//33
f 178//40 186//40 188//40 180//40
f 182//34 181//34 193//34 194//34
f 195//33 196//33 192//33 190//33
f 187//31 195//31 190//31 179//31
f 189//35 191//35 194//35 193//35
f 175//37 182//37 194//37 191//37
f 176//32 174//32 190//32 192//32
f 173//41 175//41 191//41 189//41
f 193//31 188//31 180//31 189//31
f 181//42 186//42 188//42 193//42
f 174//43 177//43 179//43 190//43
f 184//37 176//37 192//37 196//37
f 185//44 183//44 195//44 187//44
f 178//45 173//45 189//45 180//45
