# Blender v2.93.5 OBJ File: ''
# www.blender.org
mtllib box3.mtl
o Caixa_1_Cube.001
v 0.781110 0.013649 2.775209
v 0.781110 0.327296 2.775208
v 0.484102 0.327295 2.723793
v 0.484103 0.013648 2.723793
v 1.075988 0.013650 2.838917
v 1.075988 0.327296 2.838917
v 0.778981 0.327296 2.787501
v 0.778981 0.013649 2.787502
v 1.375124 0.013650 2.878040
v 1.375124 0.327297 2.878040
v 1.078117 0.327296 2.826624
v 1.078117 0.013650 2.826624
v 0.781109 0.640942 2.775208
v 0.484102 0.640941 2.723792
v 1.075987 0.640943 2.838917
v 0.778980 0.640942 2.787501
v 1.375123 0.640944 2.878040
v 1.078116 0.640943 2.826624
v 0.781109 0.954589 2.775208
v 0.484102 0.954588 2.723792
v 1.075987 0.954590 2.838916
v 0.778980 0.954589 2.787500
v 1.375123 0.954590 2.878039
v 1.078116 0.954590 2.826623
v 1.425710 0.013650 2.585924
v 1.425709 0.327296 2.585924
v 1.488794 0.013649 2.295971
v 1.488793 0.327296 2.295971
v 1.438208 0.327296 2.588087
v 1.438208 0.013650 2.588088
v 1.526881 0.013648 2.001691
v 1.526880 0.327295 2.001691
v 1.476295 0.327296 2.293807
v 1.476295 0.013649 2.293808
v 1.425709 0.640943 2.585923
v 1.488793 0.640942 2.295971
v 1.438207 0.640943 2.588087
v 1.526880 0.640941 2.001691
v 1.476294 0.640942 2.293807
v 1.425708 0.954589 2.585923
v 1.488793 0.954589 2.295970
v 1.438207 0.954590 2.588087
v 1.526879 0.954588 2.001690
v 1.476294 0.954589 2.293807
v 1.229874 0.013648 1.950276
v 1.229873 0.327294 1.950275
v 0.934995 0.013647 1.886567
v 0.934995 0.327293 1.886567
v 1.232002 0.327294 1.937982
v 1.232002 0.013647 1.937983
v 0.635859 0.013646 1.847444
v 0.635859 0.327293 1.847444
v 0.932866 0.327293 1.898860
v 0.932867 0.013647 1.898860
v 1.229873 0.640941 1.950275
v 0.934994 0.640940 1.886566
v 1.232001 0.640941 1.937982
v 0.635859 0.640939 1.847443
v 0.932866 0.640940 1.898859
v 1.229872 0.954587 1.950275
v 0.934994 0.954587 1.886566
v 1.232001 0.954587 1.937982
v 0.635858 0.954586 1.847443
v 0.932865 0.954587 1.898859
v 0.585274 0.013647 2.139560
v 0.585274 0.327293 2.139560
v 0.522190 0.013647 2.429513
v 0.522189 0.327294 2.429513
v 0.572775 0.327293 2.137396
v 0.572775 0.013647 2.137397
v 0.534688 0.327294 2.431676
v 0.534688 0.013648 2.431677
v 0.585273 0.640940 2.139560
v 0.522189 0.640941 2.429512
v 0.572774 0.640940 2.137396
v 0.534688 0.640941 2.431676
v 0.585273 0.954587 2.139559
v 0.522188 0.954587 2.429512
v 0.572774 0.954587 2.137396
v 0.534687 0.954587 2.431676
v 0.584197 0.954587 2.139373
v 0.533612 0.954587 2.431489
v 0.584198 0.640940 2.139374
v 0.831695 0.012512 2.483092
v 0.831695 0.000449 2.483092
v 0.781110 0.000450 2.775209
v 0.781110 0.012513 2.775209
v 0.584198 0.013647 2.139374
v 0.584198 0.327293 2.139374
v 1.229874 0.012512 1.950276
v 1.229874 0.000449 1.950276
v 0.932867 0.000448 1.898860
v 0.932867 0.012511 1.898860
v 1.179288 0.012512 2.242392
v 1.179288 0.000449 2.242392
v 0.882281 0.000449 2.190976
v 0.882281 0.012512 2.190976
v 0.585274 0.000448 2.139560
v 0.585274 0.012511 2.139560
v 0.534688 0.012512 2.431677
v 0.534688 0.000449 2.431677
v 0.882281 0.013648 2.190976
v 1.179288 0.013648 2.242392
v 1.128703 0.000450 2.534508
v 1.476295 0.000450 2.293808
v 1.425710 0.000451 2.585924
v 0.831695 0.013648 2.483092
v 1.078117 0.000451 2.826624
v 1.128703 0.013649 2.534508
v 1.077933 0.327296 2.827682
v 1.077934 0.013650 2.827682
v 0.780927 0.013649 2.776266
v 0.780926 0.327296 2.776266
v 1.077933 0.640943 2.827682
v 0.780926 0.640942 2.776266
v 1.077933 0.954590 2.827681
v 0.780926 0.954589 2.776265
v 1.477370 0.327296 2.293993
v 1.477371 0.013649 2.293994
v 1.426785 0.013650 2.586110
v 1.426785 0.327296 2.586110
v 1.477370 0.640942 2.293993
v 1.426784 0.640943 2.586109
v 1.477369 0.954589 2.293993
v 1.426784 0.954589 2.586109
v 0.933049 0.327293 1.897802
v 0.933050 0.013647 1.897802
v 1.230057 0.013648 1.949218
v 1.230056 0.327294 1.949218
v 0.933049 0.640940 1.897801
v 1.230056 0.640941 1.949217
v 0.933048 0.954587 1.897801
v 1.230055 0.954587 1.949217
v 0.533612 0.327294 2.431490
v 0.533613 0.013648 2.431490
v 0.533612 0.640941 2.431490
v 1.078117 0.012514 2.826624
v 1.476295 0.012513 2.293808
v 1.425710 0.012514 2.585924
v 1.128703 0.012513 2.534508
v 1.078116 0.955725 2.826623
v 0.781109 0.955725 2.775208
v 1.476294 0.955724 2.293807
v 1.425708 0.955725 2.585923
v 0.932865 0.955722 1.898859
v 1.229872 0.955723 1.950275
v 0.585273 0.955722 2.139559
v 0.534687 0.955723 2.431676
vt 0.640302 0.524624
vt 0.640302 0.349750
vt 0.808591 0.349750
vt 0.808591 0.524625
vt 0.640302 0.174875
vt 0.808591 0.174875
vt 0.640302 0.000000
vt 0.808591 0.000000
vt 0.808591 0.524625
vt 0.808591 0.349750
vt 0.974110 0.349750
vt 0.974110 0.524624
vt 0.808591 0.174875
vt 0.974110 0.174875
vt 0.808591 0.000000
vt 0.974110 0.000000
vt 0.472014 0.524625
vt 0.472014 0.349750
vt 0.640302 0.349750
vt 0.640302 0.524624
vt 0.472014 0.174875
vt 0.640302 0.174875
vt 0.472014 0.000000
vt 0.640302 0.000000
vt 0.165519 0.475376
vt 0.165519 0.650250
vt 0.000000 0.650250
vt 0.000000 0.475375
vt 0.165519 0.825125
vt 0.000000 0.825125
vt 0.165519 1.000000
vt 0.000000 1.000000
vt 0.993527 0.174875
vt 0.987055 0.174875
vt 0.987055 0.000000
vt 0.993527 0.000000
vt 0.244863 0.475375
vt 0.251598 0.475375
vt 0.251598 0.640670
vt 0.244863 0.640670
vt 0.993527 0.524624
vt 0.987055 0.524624
vt 0.987055 0.349750
vt 0.993527 0.349750
vt 0.211188 0.643436
vt 0.204453 0.643436
vt 0.204453 0.475375
vt 0.211188 0.475375
vt 0.244863 0.640670
vt 0.238128 0.640670
vt 0.238128 0.475375
vt 0.244863 0.475375
vt 0.251598 0.475375
vt 0.258333 0.475375
vt 0.258333 0.640670
vt 0.251598 0.640670
vt 0.224658 0.643436
vt 0.217923 0.643436
vt 0.217923 0.475375
vt 0.224658 0.475375
vt 0.197718 0.475375
vt 0.204453 0.475375
vt 0.204453 0.643436
vt 0.197718 0.643436
vt 0.118003 0.003911
vt 0.236007 0.119822
vt 0.118003 0.239643
vt 0.000000 0.123733
vt 0.236007 0.355554
vt 0.118003 0.475375
vt 0.000000 0.359465
vt 0.354010 0.235732
vt 0.354010 0.000000
vt 0.472014 0.115910
vt 0.472014 0.351642
vt 0.354010 0.471464
vt 0.217923 0.643436
vt 0.211188 0.643436
vt 0.211188 0.475375
vt 0.217923 0.475375
vt 0.258333 0.475375
vt 0.265068 0.475375
vt 0.265068 0.640670
vt 0.258333 0.640670
vt 0.197718 0.643436
vt 0.190983 0.643436
vt 0.190983 0.475375
vt 0.197718 0.475375
vt 0.974110 0.174875
vt 0.980582 0.174875
vt 0.980582 0.349750
vt 0.974110 0.349750
vt 0.265068 0.475375
vt 0.271803 0.475375
vt 0.271803 0.640670
vt 0.265068 0.640670
vt 0.974110 0.000000
vt 0.980582 0.000000
vt 0.238128 0.640670
vt 0.231393 0.640670
vt 0.231393 0.475375
vt 0.238128 0.475375
vt 0.224658 0.475375
vt 0.231393 0.643436
vt 0.224658 0.643436
vt 0.291114 0.643436
vt 0.284748 0.643436
vt 0.284748 0.475375
vt 0.291114 0.475376
vt 0.165519 0.825125
vt 0.171885 0.825125
vt 0.171885 1.000000
vt 0.165519 1.000000
vt 0.184617 1.000000
vt 0.178251 1.000000
vt 0.178251 0.825125
vt 0.184617 0.825125
vt 0.165519 0.650250
vt 0.171885 0.650250
vt 0.178251 0.650250
vt 0.184617 0.650250
vt 0.165519 0.475375
vt 0.171885 0.475375
vt 0.178251 0.475375
vt 0.184617 0.475375
vt 0.284748 0.640670
vt 0.278276 0.640670
vt 0.278276 0.475376
vt 0.284748 0.475375
vt 0.980582 0.349750
vt 0.987055 0.349750
vt 0.987055 0.524624
vt 0.980582 0.524624
vt 1.000000 0.524624
vt 0.993527 0.524624
vt 0.993527 0.349750
vt 1.000000 0.349750
vt 0.980582 0.174875
vt 0.987055 0.174875
vt 0.993527 0.174875
vt 1.000000 0.174875
vt 0.980582 0.000000
vt 0.987055 0.000000
vt 0.993527 0.000000
vt 1.000000 0.000000
vt 0.297480 0.643436
vt 0.291114 0.643436
vt 0.291114 0.475375
vt 0.297480 0.475376
vt 0.190983 0.650250
vt 0.184617 0.650250
vt 0.184617 0.475375
vt 0.190983 0.475375
vt 0.171885 0.475375
vt 0.178251 0.475375
vt 0.178251 0.650250
vt 0.171885 0.650250
vt 0.190983 0.825125
vt 0.184617 0.825125
vt 0.178251 0.825125
vt 0.171885 0.825125
vt 0.190983 1.000000
vt 0.184617 1.000000
vt 0.178251 1.000000
vt 0.171885 1.000000
vt 0.278276 0.640670
vt 0.271803 0.640670
vt 0.271803 0.475376
vt 0.278276 0.475375
vt 0.980582 0.524624
vt 0.974110 0.524624
vt 0.333333 0.000000
vt 0.333333 0.333333
vt 0.000000 0.333333
vt 0.000000 0.000000
vt 1.000000 0.000000
vt 1.000000 0.333333
vt 0.666667 0.333333
vt 0.666667 0.000000
vt 0.333333 0.666667
vt 0.000000 0.666667
vt 1.000000 0.666667
vt 0.666667 0.666667
vt 0.333333 1.000000
vt 0.000000 1.000000
vt 1.000000 1.000000
vt 0.666667 1.000000
vt 0.333333 0.000000
vt 0.333333 0.333333
vt 0.000000 0.333333
vt 0.000000 0.000000
vt 1.000000 0.000000
vt 1.000000 0.333333
vt 0.666667 0.333333
vt 0.666667 0.000000
vt 0.333333 0.666667
vt 0.000000 0.666667
vt 1.000000 0.666667
vt 0.666667 0.666667
vt 0.333333 1.000000
vt 0.000000 1.000000
vt 1.000000 1.000000
vt 0.666667 1.000000
vt 0.333333 0.000000
vt 0.333333 0.333333
vt 0.000000 0.333333
vt 0.000000 0.000000
vt 1.000000 0.000000
vt 1.000000 0.333333
vt 0.666667 0.333333
vt 0.666667 0.000000
vt 0.333333 0.666667
vt 0.000000 0.666667
vt 1.000000 0.666667
vt 0.666667 0.666667
vt 0.333333 1.000000
vt 0.000000 1.000000
vt 1.000000 1.000000
vt 0.666667 1.000000
vt 0.333333 0.000000
vt 0.333333 0.333333
vt 0.000000 0.333333
vt 0.000000 0.000000
vt 1.000000 0.000000
vt 1.000000 0.333333
vt 0.666667 0.333333
vt 0.666667 0.000000
vt 0.333333 0.666667
vt 0.000000 0.666667
vt 1.000000 0.666667
vt 0.666667 0.666667
vt 0.333333 1.000000
vt 0.000000 1.000000
vt 1.000000 1.000000
vt 0.666667 1.000000
vt 0.333333 1.000000
vt 0.333333 1.000000
vt 0.666667 1.000000
vt 0.666667 1.000000
vt 0.333333 0.000000
vt 0.333333 0.333333
vt 0.000000 0.333333
vt 1.000000 0.333333
vt 0.666667 0.333333
vt 0.666667 0.000000
vt 0.333333 0.666667
vt 0.333333 1.000000
vt 0.000000 1.000000
vt 0.000000 0.666667
vt 1.000000 0.666667
vt 1.000000 1.000000
vt 0.666667 1.000000
vt 0.666667 0.666667
vt 0.666667 0.333333
vt 0.666667 0.000000
vt 0.333333 0.000000
vt 0.333333 0.333333
vt 0.666667 0.666667
vt 0.333333 0.666667
vt 0.666667 1.000000
vt 0.333333 1.000000
vt 0.666667 0.333333
vt 0.666667 0.000000
vt 0.333333 0.000000
vt 0.333333 0.333333
vt 0.666667 0.666667
vt 0.333333 0.666667
vt 0.666667 1.000000
vt 0.333333 1.000000
vt 0.666667 0.333333
vt 0.666667 0.000000
vt 0.333333 0.000000
vt 0.333333 0.333333
vt 0.666667 0.666667
vt 0.333333 0.666667
vt 0.666667 1.000000
vt 0.333333 1.000000
vt 0.666667 0.333333
vt 0.666667 0.000000
vt 0.333333 0.000000
vt 0.333333 0.333333
vt 0.666667 0.666667
vt 0.333333 0.666667
vt 0.666667 0.333333
vt 0.666667 0.000000
vt 0.333333 0.000000
vt 0.333333 0.333333
vt 0.000000 0.333333
vt 0.000000 0.666667
vt 0.333333 0.666667
vt 1.000000 0.333333
vt 0.666667 0.666667
vt 1.000000 0.666667
vt 0.666667 1.000000
vt 0.333333 1.000000
vt 0.000000 0.000000
vt 1.000000 0.000000
vt 1.000000 1.000000
vt 0.000000 1.000000
vt 0.000000 0.000000
vt 1.000000 0.000000
vt 1.000000 1.000000
vt 0.000000 1.000000
vt 0.000000 0.000000
vt 1.000000 0.000000
vt 1.000000 1.000000
vt 0.000000 1.000000
vt 0.000000 0.000000
vt 1.000000 0.000000
vt 1.000000 1.000000
vt 0.000000 1.000000
vt 0.000000 0.000000
vt 1.000000 0.000000
vt 1.000000 1.000000
vt 0.000000 1.000000
vt 0.000000 0.000000
vt 1.000000 0.000000
vt 1.000000 1.000000
vt 0.000000 1.000000
vt 0.000000 0.000000
vt 1.000000 0.000000
vt 1.000000 1.000000
vt 0.000000 1.000000
vt 1.000000 0.000000
vt 1.000000 1.000000
vt 0.000000 1.000000
vt 1.000000 0.000000
vt 0.000000 1.000000
vt 1.000000 1.000000
vt 0.000000 1.000000
vt 1.000000 0.000000
vt 1.000000 1.000000
vt 1.000000 0.000000
vt 1.000000 1.000000
vt 1.000000 0.000000
vt 0.000000 1.000000
vt 1.000000 0.000000
vt 1.000000 1.000000
vt 0.000000 1.000000
vt 1.000000 0.000000
vt 1.000000 1.000000
vt 0.000000 1.000000
vt 1.000000 0.000000
vt 1.000000 1.000000
vt 0.000000 1.000000
vt 1.000000 1.000000
vt 0.000000 1.000000
vt 1.000000 0.000000
vt 0.000000 1.000000
vt 1.000000 0.000000
vt 1.000000 1.000000
vt 1.000000 1.000000
vt 0.000000 1.000000
vt 1.000000 0.000000
vt 1.000000 1.000000
vt 0.000000 1.000000
vt 1.000000 0.000000
vt 1.000000 1.000000
vt 1.000000 0.000000
vt 1.000000 1.000000
vt 0.000000 1.000000
vt 0.333333 1.000000
vt 0.666667 1.000000
vt 0.333333 1.000000
vt 0.666667 1.000000
vt 0.333333 1.000000
vt 0.666667 1.000000
vn -0.1706 0.0000 0.9853
vn 0.9853 0.0000 0.1706
vn 0.1706 -0.0000 -0.9853
vn -0.9853 -0.0000 -0.1706
vn 0.0000 -1.0000 0.0000
vn 0.0000 1.0000 -0.0000
vn 0.1705 -0.0000 -0.9854
vn -0.1708 0.0000 0.9853
vn 0.1708 -0.0000 -0.9853
vn -0.1705 0.0000 0.9854
vn -0.9853 -0.0000 -0.1707
vn 0.9853 0.0000 0.1707
vn -0.1240 -0.6869 0.7161
vn -0.1240 0.6869 0.7161
vn 0.7104 -0.6929 0.1230
vn 0.7104 0.6929 0.1230
vn 0.1240 -0.6869 -0.7161
vn 0.1240 0.6869 -0.7161
vn -0.7104 -0.6929 -0.1230
vn -0.1709 0.0000 0.9853
vn 0.1709 0.0000 -0.9853
vn 0.1702 0.0000 -0.9854
vn 0.1705 0.0000 -0.9853
vn -0.1705 0.0000 0.9853
usemtl Laço.005
s off
f 5/1/1 6/2/1 7/3/1 8/4/1
f 6/2/1 15/5/1 16/6/1 7/3/1
f 15/5/1 21/7/1 22/8/1 16/6/1
f 27/9/2 28/10/2 29/11/2 30/12/2
f 28/10/2 36/13/2 37/14/2 29/11/2
f 36/13/2 41/15/2 42/16/2 37/14/2
f 47/17/3 48/18/3 49/19/3 50/20/3
f 48/18/3 56/21/3 57/22/3 49/19/3
f 56/21/3 61/23/3 62/24/3 57/22/3
f 67/25/4 68/26/4 69/27/4 70/28/4
f 68/26/4 74/29/4 75/30/4 69/27/4
f 74/29/4 78/31/4 79/32/4 75/30/4
f 83/33/3 75/34/3 79/35/3 81/36/3
f 84/37/4 85/38/4 86/39/4 87/40/4
f 88/41/3 70/42/3 69/43/3 89/44/3
f 90/45/3 91/46/3 92/47/3 93/48/3
f 94/49/2 95/50/2 91/51/2 90/52/2
f 93/53/4 92/54/4 96/55/4 97/56/4
f 97/57/3 96/58/3 98/59/3 99/60/3
f 100/61/1 101/62/1 85/63/1 84/64/1
f 91/65/5 95/66/5 96/67/5 92/68/5
f 96/67/5 85/69/5 101/70/5 98/71/5
f 95/66/5 104/72/5 85/69/5 96/67/5
f 105/73/5 106/74/5 104/72/5 95/66/5
f 104/72/5 108/75/5 86/76/5 85/69/5
f 87/77/1 86/78/1 108/79/1 137/80/1
f 99/81/4 98/82/4 101/83/4 100/84/4
f 138/85/3 105/86/3 95/87/3 94/88/3
f 136/89/1 74/90/1 68/91/1 134/92/1
f 139/93/2 106/94/2 105/95/2 138/96/2
f 82/97/1 78/98/1 74/90/1 136/89/1
f 137/99/2 108/100/2 104/101/2 140/102/2
f 140/103/1 104/101/1 106/104/1 139/105/1
f 89/44/3 69/43/3 75/34/3 83/33/3
f 111/106/5 5/107/5 8/108/5 112/109/5
f 110/110/2 6/111/2 5/112/2 111/113/2
f 112/114/4 8/115/4 7/116/4 113/117/4
f 114/118/2 15/119/2 6/111/2 110/110/2
f 113/117/4 7/116/4 16/120/4 115/121/4
f 116/122/2 21/123/2 15/119/2 114/118/2
f 115/121/4 16/120/4 22/124/4 117/125/4
f 119/126/5 27/127/5 30/128/5 120/129/5
f 118/130/3 28/131/3 27/132/3 119/133/3
f 120/134/1 30/135/1 29/136/1 121/137/1
f 122/138/3 36/139/3 28/131/3 118/130/3
f 121/137/1 29/136/1 37/140/1 123/141/1
f 124/142/3 41/143/3 36/139/3 122/138/3
f 123/141/1 37/140/1 42/144/1 125/145/1
f 127/146/5 47/147/5 50/148/5 128/149/5
f 126/150/4 48/151/4 47/152/4 127/153/4
f 128/154/2 50/155/2 49/156/2 129/157/2
f 130/158/4 56/159/4 48/151/4 126/150/4
f 129/157/2 49/156/2 57/160/2 131/161/2
f 132/162/4 61/163/4 56/159/4 130/158/4
f 131/161/2 57/160/2 62/164/2 133/165/2
f 135/166/5 67/167/5 70/168/5 88/169/5
f 134/92/1 68/91/1 67/170/1 135/171/1
usemtl Caixa.002
f 1/172/1 2/173/1 3/174/1 4/175/1
f 9/176/1 10/177/1 11/178/1 12/179/1
f 2/173/1 13/180/1 14/181/1 3/174/1
f 10/177/1 17/182/1 18/183/1 11/178/1
f 13/180/1 19/184/1 20/185/1 14/181/1
f 17/182/1 23/186/1 24/187/1 18/183/1
f 25/188/2 26/189/2 10/190/2 9/191/2
f 31/192/2 32/193/2 33/194/2 34/195/2
f 26/189/2 35/196/2 17/197/2 10/190/2
f 32/193/2 38/198/2 39/199/2 33/194/2
f 35/196/2 40/200/2 23/201/2 17/197/2
f 38/198/2 43/202/2 44/203/2 39/199/2
f 45/204/3 46/205/3 32/206/3 31/207/3
f 51/208/3 52/209/3 53/210/3 54/211/3
f 46/205/3 55/212/3 38/213/3 32/206/3
f 52/209/3 58/214/3 59/215/3 53/210/3
f 55/212/3 60/216/3 43/217/3 38/213/3
f 58/214/3 63/218/3 64/219/3 59/215/3
f 65/220/4 66/221/4 52/222/4 51/223/4
f 4/224/4 3/225/4 71/226/4 72/227/4
f 66/221/4 73/228/4 58/229/4 52/222/4
f 3/225/4 14/230/4 76/231/4 71/226/4
f 73/228/4 77/232/4 63/233/4 58/229/4
f 14/230/4 20/234/4 80/235/4 76/231/4
f 81/236/6 79/237/6 78/238/6 82/239/6
f 54/240/5 102/241/5 65/242/5 51/223/5
f 31/192/5 34/243/5 103/244/5 45/245/5
f 107/246/5 1/247/5 4/248/5 72/249/5
f 25/250/5 9/251/5 12/252/5 109/253/5
f 11/178/2 110/254/2 111/255/2 12/179/2
f 1/172/4 112/256/4 113/257/4 2/173/4
f 18/183/2 114/258/2 110/254/2 11/178/2
f 2/173/4 113/257/4 115/259/4 13/180/4
f 24/187/2 116/260/2 114/258/2 18/183/2
f 13/180/4 115/259/4 117/261/4 19/184/4
f 33/194/7 118/262/7 119/263/7 34/195/7
f 25/188/8 120/264/8 121/265/8 26/189/8
f 39/199/9 122/266/9 118/262/9 33/194/9
f 26/189/1 121/265/1 123/267/1 35/196/1
f 44/203/3 124/268/3 122/266/3 39/199/3
f 35/196/10 123/267/10 125/269/10 40/200/10
f 53/210/11 126/270/11 127/271/11 54/211/11
f 45/204/12 128/272/12 129/273/12 46/205/12
f 59/215/11 130/274/11 126/270/11 53/210/11
f 46/205/2 129/273/2 131/275/2 55/212/2
f 64/219/11 132/276/11 130/274/11 59/215/11
f 55/212/12 131/275/12 133/277/12 60/216/12
f 71/226/10 134/278/10 135/279/10 72/227/10
f 65/220/3 88/280/3 89/281/3 66/221/3
f 76/231/1 136/282/1 134/278/1 71/226/1
f 66/221/7 89/281/7 83/283/7 73/228/7
f 80/235/8 82/239/8 136/282/8 76/231/8
f 73/228/3 83/283/3 81/236/3 77/232/3
f 103/244/2 94/284/2 90/285/2 45/245/2
f 54/240/4 93/286/4 97/287/4 102/241/4
f 102/241/3 97/287/3 99/288/3 65/242/3
f 72/249/1 100/289/1 84/290/1 107/246/1
f 34/243/3 138/291/3 94/284/3 103/244/3
f 109/253/1 140/292/1 139/293/1 25/250/1
f 12/252/2 137/294/2 140/292/2 109/253/2
f 87/295/4 1/247/4 107/246/4 84/290/4
f 87/296/13 137/297/13 111/298/13 112/299/13
f 141/300/14 142/301/14 117/302/14 116/303/14
f 139/304/15 138/305/15 119/306/15 120/307/15
f 143/308/16 144/309/16 125/310/16 124/311/16
f 90/312/17 93/313/17 127/314/17 128/315/17
f 145/316/18 146/317/18 133/318/18 132/319/18
f 135/320/19 88/321/19 99/322/19 100/323/19
f 112/324/4 1/325/4 87/326/4
f 19/327/11 117/302/11 142/328/11
f 137/297/2 12/329/2 111/330/2
f 24/331/2 141/332/2 116/303/2
f 25/333/20 139/334/20 120/307/20
f 40/335/20 125/310/20 144/336/20
f 119/337/21 138/338/21 34/339/21
f 143/340/22 124/341/22 44/342/22
f 90/343/12 128/344/12 45/345/12
f 146/317/2 60/346/2 133/347/2
f 54/348/4 127/314/4 93/349/4
f 64/350/4 145/351/4 132/319/4
f 88/321/7 65/352/7 99/353/7
f 147/354/23 77/355/23 81/356/23
f 72/357/20 135/358/20 100/323/20
f 148/359/24 82/360/24 80/361/24
f 117/261/6 22/362/6 21/363/6 116/260/6
f 125/269/6 42/364/6 41/365/6 124/268/6
f 133/277/6 62/366/6 61/367/6 132/276/6
o Tampa_1_Plane.003
v 0.420772 0.970000 2.765762
v 1.405580 0.970000 2.939410
v 0.594420 0.970000 1.780954
v 1.579228 0.970000 1.954602
v 0.420772 0.770000 2.765762
v 1.405580 0.770000 2.939410
v 0.594420 0.770000 1.780954
v 1.579228 0.770000 1.954602
v 1.067251 0.970000 2.879754
v 1.240899 0.970000 1.894946
v 1.067251 0.770000 2.879754
v 1.240899 0.770000 1.894946
v 0.944215 0.970000 1.842632
v 0.944215 0.770000 1.842632
v 0.770566 0.970000 2.827440
v 0.770566 0.770000 2.827440
v 1.065514 0.980000 2.889601
v 1.242635 0.980000 1.885098
v 1.065514 0.770000 2.889601
v 1.242635 0.770000 1.885098
v 0.945951 0.980000 1.832784
v 0.945951 0.770000 1.832784
v 0.768830 0.980000 2.837288
v 0.768830 0.770000 2.837288
v 0.533372 0.970000 2.127176
v 1.518180 0.970000 2.300824
v 0.533372 0.770000 2.127176
v 1.518180 0.770000 2.300824
v 1.179851 0.970000 2.241167
v 0.883166 0.970000 2.188854
v 1.180366 0.980000 2.238244
v 0.883682 0.980000 2.185930
v 0.481343 0.970000 2.422246
v 0.481343 0.770000 2.422246
v 1.466151 0.970000 2.595895
v 1.466151 0.770000 2.595895
v 1.127822 0.970000 2.536238
v 0.831137 0.970000 2.483925
v 1.127297 0.980000 2.539216
v 0.830612 0.980000 2.486902
v 0.523524 0.980000 2.125439
v 1.528028 0.980000 2.302560
v 0.523524 0.770000 2.125439
v 1.528028 0.770000 2.302560
v 0.471495 0.980000 2.420510
v 0.471495 0.770000 2.420510
v 1.475999 0.980000 2.597631
v 1.475999 0.770000 2.597631
vn 0.0000 1.0000 0.0000
vn 0.1736 0.0000 -0.9848
vn 0.9848 0.0000 0.1736
vn -0.1736 0.0000 0.9848
vn -0.9848 0.0000 -0.1736
vn -0.9848 0.0000 -0.1737
vn 0.0000 -1.0000 0.0000
vn 0.9848 0.0000 0.1737
vn -0.1737 0.0000 0.9848
vn 0.1737 0.0000 -0.9848
vn -0.1757 -0.1515 0.9727
vn 0.1759 -0.1489 -0.9731
vn -0.1674 -0.1516 0.9742
vn 0.1677 -0.1488 -0.9745
usemtl Caixa.002
s off
f 177//25 174//25 152//25 158//25
f 161//26 162//26 155//26 151//26
f 174//27 176//27 156//27 152//27
f 157//28 159//28 154//28 150//28
f 181//29 182//29 153//29 149//29
f 152//26 156//26 160//26 158//26
f 173//25 178//25 161//25 151//25
f 149//28 153//28 164//28 163//28
f 151//29 155//29 175//29 173//29
f 157//25 150//25 183//25 185//25
f 150//27 154//27 184//27 183//27
f 149//25 163//25 186//25 181//25
usemtl Laço.005
f 186//29 163//29 171//29 188//29
f 163//29 164//29 172//29 171//29
f 162//30 161//30 169//30 170//30
f 171//28 172//28 167//28 165//28
f 180//25 179//25 166//25 169//25
f 166//26 168//26 170//26 169//26
f 160//31 162//31 170//31 168//31
f 177//27 158//27 166//27 179//27
f 158//32 160//32 168//32 166//32
f 159//32 157//32 165//32 167//32
f 164//31 159//31 167//31 172//31
f 185//27 177//27 179//27 187//27
f 188//25 187//25 179//25 180//25
f 161//29 178//29 180//29 169//29
f 183//33 184//33 196//33 195//33
f 171//25 165//25 187//25 188//25
f 157//27 185//27 187//27 165//27
f 178//29 186//29 188//29 180//29
f 182//28 181//28 193//28 194//28
f 195//27 196//27 192//27 190//27
f 187//25 195//25 190//25 179//25
f 189//29 191//29 194//29 193//29
f 175//31 182//31 194//31 191//31
f 176//34 174//34 190//34 192//34
f 173//34 175//34 191//34 189//34
f 193//25 188//25 180//25 189//25
f 181//35 186//35 188//35 193//35
f 174//36 177//36 179//36 190//36
f 184//31 176//31 192//31 196//31
f 185//37 183//37 195//37 187//37
f 178//38 173//38 189//38 180//38
