# Blender v2.93.5 OBJ File: ''
# www.blender.org
mtllib mid.mtl
o Cone.001
v 1.006402 0.336364 -0.292540
v 1.594335 0.336364 -0.049010
v 1.837865 0.336364 0.538923
v 1.594335 0.336364 1.126856
v 1.006402 0.336364 1.370386
v 1.006402 1.999290 0.538923
v 0.418469 0.336364 1.126856
v 0.174939 0.336364 0.538923
v 0.418469 0.336364 -0.049010
vn -0.8929 -0.4502 0.0000
vn 0.0000 1.0000 0.0000
vn -0.6314 -0.4502 -0.6314
vn 0.0000 -0.4502 -0.8929
vn 0.6314 -0.4502 -0.6314
vn -0.6314 -0.4502 0.6314
vn 0.0000 -0.4502 0.8929
vn 0.6314 -0.4502 0.6314
vn 0.8929 -0.4502 0.0000
usemtl Material.001
s 1
f 8//1 6//2 9//3
f 1//4 6//2 2//5
f 7//6 6//2 8//1
f 5//7 6//2 7//6
f 4//8 6//2 5//7
f 3//9 6//2 4//8
f 9//3 6//2 1//4
f 2//5 6//2 3//9
f 1//4 2//5 3//9 4//8 5//7 7//6 8//1 9//3
