# Blender v2.93.5 OBJ File: ''
# www.blender.org
mtllib moon.mtl
o Moon_Icosphere.001
v 192.753906 105.630371 251.955658
v 194.352585 111.326965 251.291153
v 191.231979 103.252602 252.939423
v 193.687759 105.452896 251.099960
v 194.847031 108.445015 250.497147
v 193.480118 108.461288 251.676926
v 193.386124 111.237862 252.119659
v 192.924408 113.947754 252.889099
v 193.696671 112.655342 252.038513
v 192.015503 104.383797 252.422806
v 194.775421 109.929985 250.747528
v 193.231171 106.985863 251.716736
v 193.219788 112.602646 252.452652
v 193.520233 109.857498 251.823395
v 194.477036 106.894234 250.611374
v 192.552048 104.272011 251.927505
vt 0.393939 0.236191
vt 0.484848 0.236191
vt 0.475378 0.196826
vt 0.386363 0.196826
vt 0.454545 0.157461
vt 0.431818 0.118096
vt 0.388257 0.118096
vt 0.378788 0.157461
vt 0.378788 0.314921
vt 0.388257 0.354286
vt 0.431818 0.354286
vt 0.454545 0.314921
vt 0.386363 0.275556
vt 0.475378 0.275556
vt 0.409091 0.393652
vt 0.409091 0.078731
vn -0.6517 0.0960 -0.7523
vn -0.6517 0.0960 -0.7524
vn -0.6550 0.0986 -0.7491
vn -0.6559 0.1002 -0.7482
vn -0.6587 0.1068 -0.7448
vn -0.6600 0.1146 -0.7424
vn -0.6601 0.1167 -0.7421
vn -0.6592 0.1097 -0.7439
vn -0.6535 0.0988 -0.7505
vn -0.6570 0.0988 -0.7473
vn -0.6560 0.0996 -0.7481
vn -0.6528 0.0981 -0.7511
vn -0.6511 0.0967 -0.7528
vn -0.6509 0.0967 -0.7530
vn -0.6587 0.0974 -0.7461
vn -0.6601 0.1184 -0.7418
usemtl moon
s 1
f 6/1/1 5/2/2 15/3/3 12/4/4
f 4/5/5 16/6/6 10/7/7 1/8/8
f 7/9/9 13/10/10 9/11/11 2/12/12
f 14/13/13 7/9/9 2/12/12 11/14/14
f 6/1/1 14/13/13 11/14/14 5/2/2
f 8/15/15 9/11/11 13/10/10
f 4/5/5 1/8/8 12/4/4 15/3/3
f 3/16/16 10/7/7 16/6/6
