# Blender v2.93.5 OBJ File: ''
# www.blender.org
mtllib snow_roof.mtl
o snow_roof_Cube.001
v -2.930722 2.377924 3.977615
v 0.000012 4.202037 4.085320
v 0.000012 4.199557 -3.092959
v -2.930722 2.377007 -2.985444
v 2.931406 2.376934 -2.985444
v 2.931406 2.376785 3.977615
v -2.704641 3.124222 3.625786
v 0.000541 4.837657 3.818204
v 0.000541 4.837657 -2.780890
v -2.684228 3.089927 -2.527170
v 2.704112 3.082679 -2.536229
v 2.690697 3.073758 3.457548
v -1.127987 3.557830 4.085320
v -0.375993 4.030876 4.085320
v -1.878966 3.064298 -3.092154
v -2.606649 2.592901 -3.072816
v 2.966774 2.387676 1.398582
v 2.958368 2.391701 3.143566
v -2.965228 2.376333 -0.398993
v -2.967401 2.382488 -2.144476
v 1.879268 3.064882 -3.092154
v 2.607187 2.593339 -3.072816
v 1.879268 3.066638 4.084509
v 2.607187 2.592901 4.065069
v -1.074711 4.229781 3.818204
v -0.358122 4.678160 3.818204
v 0.000578 4.876645 -0.379536
v 0.000571 4.869523 -2.083006
v -1.790352 3.763063 -2.780152
v -2.478891 3.307956 -2.745849
v 2.757249 3.081511 1.364374
v 2.737223 3.081953 2.841610
v -2.731987 3.088537 -0.314809
v -2.709274 3.084059 -1.776094
v 1.803742 3.754318 -2.780152
v 2.497224 3.295982 -2.745849
v 1.803742 3.754318 3.817470
v 2.497224 3.295982 3.783341
v 2.822307 2.793283 -2.777005
v 2.822308 2.788543 3.802967
v 0.000297 4.544654 4.041842
v -2.811170 2.802681 3.802966
v -2.809555 2.800297 -2.773002
v 0.000297 4.543570 -3.015920
v 2.958367 2.390493 -2.144123
v 2.966774 2.387497 -0.398997
v -2.956713 2.382245 3.143543
v -2.965225 2.376304 1.398580
v 0.000571 4.869523 3.063428
v 0.000578 4.876645 1.359731
v 2.727416 3.073837 -1.779194
v 2.748939 3.076098 -0.313569
v -2.736700 3.107225 2.915492
v -2.745216 3.098208 1.363730
v 0.376058 4.028842 -3.092959
v 1.128166 3.556282 -3.092959
v 0.376058 4.031018 4.085320
v 1.128166 3.558258 4.085320
v 0.361035 4.676409 -2.780890
v 1.082761 4.224529 -2.780890
v 0.361035 4.676409 3.818204
v 1.082761 4.224529 3.818204
v -2.606649 2.598167 4.065069
v -1.878965 3.065953 4.084509
v -0.375993 4.028718 -3.092959
v -1.127987 3.555911 -3.092959
v -2.478891 3.307956 3.783341
v -1.790352 3.763063 3.817470
v -0.358122 4.678160 -2.780890
v -1.074711 4.229781 -2.780890
v -1.071055 4.270862 -0.379536
v -0.356896 4.717710 -0.379536
v -0.357120 4.710485 -2.083006
v -1.071723 4.263357 -2.083006
v 1.079645 4.265258 1.359730
v 0.360004 4.715842 1.359731
v 0.360193 4.708638 3.063428
v 1.080214 4.257817 3.063428
v 2.902824 2.727240 -2.091993
v 2.920815 2.731093 -0.389075
v 2.545873 2.975938 3.997344
v 1.838702 3.438071 4.040832
v -2.891262 2.745311 3.081830
v -2.909153 2.738487 1.378899
v -2.529914 2.984763 -2.967551
v -1.831357 3.441286 -3.014910
v -0.366378 4.380941 4.041842
v -1.099323 3.920999 4.041842
v 0.367975 4.378994 -3.015920
v 1.103737 3.917357 -3.015920
v -2.909154 2.737773 -0.389075
v -2.891262 2.733867 -2.091993
v 2.920815 2.732080 1.378899
v 2.902824 2.733683 3.081830
v 1.080215 4.257817 -2.083006
v 0.360193 4.708638 -2.083006
v 0.360004 4.715842 -0.379536
v 1.079645 4.265258 -0.379536
v -1.071723 4.263357 3.063428
v -0.357120 4.710485 3.063428
v -0.356896 4.717710 1.359731
v -1.071055 4.270862 1.359730
v 2.499329 3.325754 -2.070935
v 1.799605 3.788578 -2.082634
v 1.798826 3.796088 -0.379528
v 2.503403 3.328909 -0.379380
v 1.838702 3.437026 -3.014909
v 2.507348 3.001062 -2.946063
v 1.103737 3.918420 4.041842
v 0.367975 4.380074 4.041842
v 2.503403 3.328910 1.359809
v 1.798826 3.796088 1.359732
v 1.799605 3.788578 3.063063
v 2.499329 3.325754 3.051551
v -2.466769 3.344507 3.017023
v -1.785482 3.797802 3.063062
v -1.784540 3.805419 1.359732
v -2.483789 3.341720 1.359809
v -1.831357 3.442323 4.040831
v -2.535733 2.981764 3.997344
v -1.099323 3.919940 -3.015920
v -0.366378 4.379864 -3.015920
v -2.483789 3.341720 -0.379380
v -1.784540 3.805418 -0.379529
v -1.785482 3.797802 -2.082634
v -2.479936 3.338420 -2.070935
vt 0.573837 0.214505
vt 0.607946 0.214505
vt 0.607898 0.238687
vt 0.573695 0.238687
vt 0.607820 0.594523
vt 0.625000 0.594523
vt 0.625000 0.654791
vt 0.607820 0.654791
vt 0.573433 0.713826
vt 0.607811 0.713826
vt 0.607770 0.738044
vt 0.573311 0.738044
vt 0.625000 0.155477
vt 0.625000 0.214505
vt 0.607957 0.155477
vt 0.539764 0.214492
vt 0.539809 0.155477
vt 0.573869 0.155477
vt 0.625000 0.713826
vt 0.537537 0.246982
vt 0.503763 0.245268
vt 0.506662 0.237473
vt 0.539531 0.238662
vt 0.607946 0.036174
vt 0.607957 0.095209
vt 0.573869 0.095209
vt 0.573837 0.036174
vt 0.625000 0.238687
vt 0.539090 0.713813
vt 0.539127 0.654791
vt 0.573460 0.654791
vt 0.485036 0.594178
vt 0.486007 0.534936
vt 0.492168 0.536435
vt 0.491526 0.594500
vt 0.537191 0.746635
vt 0.503288 0.744922
vt 0.505786 0.736836
vt 0.538892 0.738019
vt 0.607811 0.535496
vt 0.573460 0.594523
vt 0.573433 0.535496
vt 0.625000 0.738044
vt 0.485036 0.655474
vt 0.491526 0.654858
vt 0.485585 0.094526
vt 0.486549 0.035282
vt 0.493142 0.037072
vt 0.492514 0.095143
vt 0.489960 0.511669
vt 0.494561 0.516945
vt 0.481281 0.593804
vt 0.482030 0.532607
vt 0.499999 0.748644
vt 0.484122 0.745006
vt 0.489961 0.737987
vt 0.572293 0.746678
vt 0.572293 0.502974
vt 0.607431 0.502974
vt 0.607770 0.511313
vt 0.573311 0.511313
vt 0.494561 0.732440
vt 0.535188 0.749946
vt 0.484122 0.004995
vt 0.490482 0.012013
vt 0.482030 0.032606
vt 0.539127 0.594523
vt 0.485585 0.155822
vt 0.492514 0.155500
vt 0.486549 0.215064
vt 0.493142 0.213565
vt 0.495485 0.017561
vt 0.481281 0.093804
vt 0.499999 0.248644
vt 0.484122 0.245005
vt 0.490481 0.238331
vt 0.481281 0.656196
vt 0.572501 0.247026
vt 0.572501 0.003322
vt 0.607500 0.003322
vt 0.607898 0.011956
vt 0.573695 0.011956
vt 0.495485 0.233055
vt 0.535188 0.249946
vt 0.607031 0.000000
vt 0.625000 0.000000
vt 0.625000 0.003322
vt 0.539809 0.095209
vt 0.537537 0.003365
vt 0.539531 0.011981
vt 0.625000 0.011956
vt 0.571094 0.000000
vt 0.607031 0.500000
vt 0.625000 0.500000
vt 0.625000 0.502974
vt 0.571094 0.250000
vt 0.537191 0.503018
vt 0.538892 0.511338
vt 0.625000 0.511313
vt 0.571094 0.500000
vt 0.571094 0.750000
vt 0.482030 0.217394
vt 0.486007 0.714718
vt 0.492168 0.712928
vt 0.481281 0.156196
vt 0.482030 0.717394
vt 0.625000 0.535496
vt 0.539090 0.535508
vt 0.625000 0.036174
vt 0.625000 0.095209
vt 0.535188 0.500054
vt 0.539764 0.036187
vt 0.535188 0.000054
vt 0.505686 0.535914
vt 0.505786 0.512527
vt 0.505491 0.594528
vt 0.503288 0.504732
vt 0.505686 0.713415
vt 0.505491 0.654794
vt 0.499999 0.501356
vt 0.484122 0.504995
vt 0.607431 0.746678
vt 0.607031 0.750000
vt 0.625000 0.746678
vt 0.625000 0.750000
vt 0.506662 0.013164
vt 0.506612 0.036585
vt 0.506428 0.095207
vt 0.503763 0.005078
vt 0.506612 0.214086
vt 0.506428 0.155472
vt 0.499999 0.001356
vt 0.607500 0.247026
vt 0.607031 0.250000
vt 0.625000 0.247026
vt 0.625000 0.250000
vn -0.5382 0.8425 -0.0208
vn -0.4690 0.8829 -0.0219
vn -0.4216 0.8040 -0.4192
vn -0.4900 0.7682 -0.4118
vn 0.4706 0.8823 -0.0018
vn 0.0011 1.0000 -0.0021
vn 0.0011 1.0000 0.0021
vn 0.4706 0.8823 0.0018
vn 0.5383 0.8425 0.0194
vn 0.4702 0.8823 0.0204
vn 0.4207 0.8000 0.4277
vn 0.4880 0.7648 0.4207
vn 0.0011 0.9997 -0.0248
vn -0.4694 0.8829 -0.0018
vn -0.5492 0.8354 -0.0207
vn -0.5494 0.8355 -0.0016
vn -0.5384 0.8427 -0.0017
vn 0.0011 0.9997 0.0230
vn -0.2895 0.4091 -0.8654
vn -0.5013 0.4370 -0.7468
vn -0.6223 0.6852 -0.3783
vn -0.5052 0.7578 -0.4128
vn -0.4690 0.8829 0.0204
vn -0.4694 0.8829 0.0018
vn -0.5384 0.8427 0.0017
vn -0.5382 0.8426 0.0194
vn 0.0009 0.9096 -0.4154
vn 0.5492 0.8355 0.0193
vn 0.5494 0.8356 0.0016
vn 0.5385 0.8426 0.0017
vn 0.9549 0.2967 -0.0060
vn 0.9478 0.3170 -0.0327
vn 0.8214 0.5701 -0.0161
vn 0.8173 0.5761 -0.0059
vn 0.2571 0.3603 0.8967
vn 0.4986 0.4006 0.7687
vn 0.6301 0.6785 0.3777
vn 0.5029 0.7547 0.4213
vn 0.4701 0.8823 -0.0219
vn 0.5385 0.8426 -0.0017
vn 0.5383 0.8424 -0.0208
vn 0.0009 0.9064 0.4223
vn 0.9572 0.2892 0.0038
vn 0.8166 0.5772 0.0026
vn -0.9565 0.2915 0.0019
vn -0.9551 0.2945 0.0325
vn -0.8120 0.5834 0.0168
vn -0.8115 0.5844 -0.0004
vn 0.8329 0.4135 -0.3678
vn 0.8148 0.5574 -0.1592
vn 0.9901 0.1404 -0.0039
vn 0.9801 0.1951 -0.0366
vn 0.4742 0.3063 0.8254
vn 0.8668 0.3081 0.3921
vn 0.8437 0.3965 0.3619
vn 0.2329 0.3617 0.9027
vn 0.2644 0.4113 -0.8723
vn 0.2308 0.4231 -0.8762
vn 0.4226 0.8036 -0.4190
vn 0.4902 0.7683 -0.4116
vn 0.8210 0.5591 0.1157
vn 0.1310 0.1532 0.9795
vn -0.8694 0.3178 0.3783
vn -0.8419 0.3780 0.3851
vn -0.9771 0.2096 0.0350
vn 0.5494 0.8356 -0.0016
vn -0.9501 0.3117 -0.0057
vn -0.8143 0.5804 -0.0072
vn -0.9396 0.3406 -0.0334
vn -0.8188 0.5737 -0.0171
vn -0.7965 0.5705 0.2001
vn -0.9871 0.1598 0.0035
vn -0.5022 0.3795 -0.7770
vn -0.8533 0.3593 -0.3778
vn -0.8381 0.4223 -0.3453
vn 0.9901 0.1400 0.0038
vn -0.2643 0.4110 -0.8725
vn -0.2328 0.3614 0.9029
vn -0.2055 0.3741 0.9043
vn -0.4197 0.8005 0.4278
vn -0.4878 0.7647 0.4209
vn -0.8165 0.5601 -0.1397
vn -0.1924 0.2463 -0.9499
vn -0.0709 0.1249 0.9896
vn 0.0000 0.1253 0.9921
vn 0.0003 0.4351 0.9004
vn -0.5497 0.8354 0.0018
vn -0.2571 0.3603 0.8967
vn -0.5033 0.7545 0.4210
vn -0.0817 0.1250 0.9888
vn 0.1224 0.2160 -0.9687
vn 0.0000 0.2177 -0.9760
vn 0.0003 0.4782 -0.8782
vn -0.1403 0.2157 -0.9663
vn 0.2937 0.4059 -0.8654
vn 0.5062 0.7557 -0.4154
vn 0.1402 0.2158 -0.9663
vn 0.0817 0.1251 0.9888
vn -0.9727 0.2289 -0.0370
vn 0.9460 0.3217 0.0402
vn 0.8197 0.5722 0.0240
vn -0.9857 0.1682 -0.0022
vn 0.9802 0.1943 0.0374
vn 0.5492 0.8354 -0.0207
vn 0.2156 0.2665 -0.9394
vn -0.5499 0.8350 0.0190
vn -0.1319 0.1549 0.9791
vn 0.6500 0.7596 -0.0197
vn 0.6208 0.6786 -0.3925
vn 0.6407 0.7677 -0.0034
vn 0.4904 0.4390 -0.7528
vn 0.6518 0.7579 0.0261
vn 0.6334 0.7738 0.0016
vn 0.4900 0.3985 -0.7753
vn 0.8498 0.3529 -0.3915
vn 0.2058 0.3741 0.9042
vn 0.0709 0.1249 0.9896
vn -0.5930 0.6973 0.4025
vn -0.6076 0.7941 0.0151
vn -0.6214 0.7835 0.0004
vn -0.4558 0.3776 0.8060
vn -0.6526 0.7574 -0.0206
vn -0.6382 0.7698 -0.0040
vn -0.4785 0.3139 0.8200
vn -0.2305 0.4231 -0.8762
vn -0.1224 0.2160 -0.9687
usemtl Snow.001
s 1
f 74/1/1 73/2/2 69/3/3 70/4/4
f 97/5/5 27/6/6 50/7/7 76/8/8
f 78/9/9 77/10/10 61/11/11 62/12/12
f 27/13/6 28/14/13 73/2/2 72/15/14
f 74/1/1 125/16/15 124/17/16 71/18/17
f 49/19/18 77/10/10 76/8/8 50/7/7
f 86/20/19 85/21/20 30/22/21 29/23/22
f 100/24/23 101/25/24 102/26/25 99/27/26
f 125/16/15 74/1/1 70/4/4 29/23/22
f 73/2/2 28/14/13 9/28/27 69/3/3
f 72/15/14 73/2/2 74/1/1 71/18/17
f 78/9/9 113/29/28 112/30/29 75/31/30
f 80/32/31 79/33/32 51/34/33 52/35/34
f 82/36/35 81/37/36 38/38/37 37/39/38
f 96/40/39 97/5/5 98/41/40 95/42/41
f 113/29/28 78/9/9 62/12/12 37/39/38
f 77/10/10 49/19/18 8/43/42 61/11/11
f 76/8/8 77/10/10 78/9/9 75/31/30
f 93/44/43 80/32/31 52/35/34 31/45/44
f 84/46/45 83/47/46 53/48/47 54/49/48
f 79/33/32 39/50/49 11/51/50 51/34/33
f 79/33/32 80/32/31 46/52/51 45/53/52
f 24/54/53 6/55/54 40/56/55 81/37/36
f 109/57/56 82/36/35 37/39/38 62/12/12
f 90/58/57 89/59/58 59/60/59 60/61/60
f 81/37/36 40/56/55 12/62/61 38/38/37
f 81/37/36 82/36/35 23/63/62 24/54/53
f 1/64/63 42/65/64 83/47/46 47/66/65
f 75/31/30 112/30/29 105/67/66 98/41/40
f 91/68/67 84/46/45 54/49/48 33/69/68
f 92/70/69 91/68/67 33/69/68 34/71/70
f 83/47/46 42/65/64 7/72/71 53/48/47
f 83/47/46 84/46/45 48/73/72 47/66/65
f 16/74/73 4/75/74 43/76/75 85/21/20
f 80/32/31 93/44/43 17/77/76 46/52/51
f 121/78/77 86/20/19 29/23/22 70/4/4
f 88/79/78 87/80/79 26/81/80 25/82/81
f 85/21/20 43/76/75 10/83/82 30/22/21
f 85/21/20 86/20/19 15/84/83 16/74/73
f 14/85/84 2/86/85 41/87/86 87/80/79
f 71/18/17 124/17/16 117/88/87 102/26/25
f 119/89/88 88/79/78 25/82/81 68/90/89
f 25/82/81 26/81/80 100/24/23 99/27/26
f 87/80/79 41/87/86 8/91/42 26/81/80
f 87/80/79 88/79/78 13/92/90 14/85/84
f 55/93/91 3/94/92 44/95/93 89/59/58
f 86/20/19 121/78/77 66/96/94 15/84/83
f 107/97/95 90/58/57 60/61/60 35/98/96
f 59/60/59 96/40/39 95/42/41 60/61/60
f 89/59/58 44/95/93 9/99/27 59/60/59
f 89/59/58 90/58/57 56/100/97 55/93/91
f 82/36/35 109/57/56 58/101/98 23/63/62
f 20/102/99 92/70/69 43/76/75 4/75/74
f 94/103/100 93/44/43 31/45/44 32/104/101
f 91/68/67 92/70/69 20/102/99 19/105/102
f 43/76/75 92/70/69 34/71/70 10/83/82
f 18/106/103 94/103/100 40/56/55 6/55/54
f 27/6/6 97/5/5 96/40/39 28/107/13
f 93/44/43 94/103/100 18/106/103 17/77/76
f 40/56/55 94/103/100 32/104/101 12/62/61
f 98/41/40 105/67/66 104/108/104 95/42/41
f 97/5/5 76/8/8 75/31/30 98/41/40
f 49/109/18 50/110/7 101/25/24 100/24/23
f 59/60/59 9/99/27 28/107/13 96/40/39
f 90/58/57 107/97/95 21/111/105 56/100/97
f 102/26/25 117/88/87 116/112/106 99/27/26
f 101/25/24 72/15/14 71/18/17 102/26/25
f 26/81/80 8/91/42 49/109/18 100/24/23
f 88/79/78 119/89/88 64/113/107 13/92/90
f 35/98/96 60/61/60 95/42/41 104/108/104
f 68/90/89 25/82/81 99/27/26 116/112/106
f 35/98/96 104/108/104 103/114/108 36/115/109
f 101/25/24 50/110/7 27/13/6 72/15/14
f 11/51/50 36/115/109 103/114/108 51/34/33
f 104/108/104 105/67/66 106/116/110 103/114/108
f 108/117/111 107/97/95 35/98/96 36/115/109
f 103/114/108 106/116/110 52/35/34 51/34/33
f 114/118/112 113/29/28 37/39/38 38/38/37
f 106/116/110 111/119/113 31/45/44 52/35/34
f 22/120/114 108/117/111 39/50/49 5/121/115
f 110/122/116 109/57/56 62/12/12 61/11/11
f 107/97/95 108/117/111 22/120/114 21/111/105
f 39/50/49 108/117/111 36/115/109 11/51/50
f 57/123/117 110/122/116 41/124/86 2/125/85
f 111/119/113 106/116/110 105/67/66 112/30/29
f 109/57/56 110/122/116 57/123/117 58/101/98
f 41/124/86 110/122/116 61/11/11 8/43/42
f 111/119/113 114/118/112 32/104/101 31/45/44
f 112/30/29 113/29/28 114/118/112 111/119/113
f 32/104/101 114/118/112 38/38/37 12/62/61
f 67/126/118 68/90/89 116/112/106 115/127/119
f 7/72/71 67/126/118 115/127/119 53/48/47
f 116/112/106 117/88/87 118/128/120 115/127/119
f 120/129/121 119/89/88 68/90/89 67/126/118
f 115/127/119 118/128/120 54/49/48 53/48/47
f 126/130/122 125/16/15 29/23/22 30/22/21
f 118/128/120 123/131/123 33/69/68 54/49/48
f 63/132/124 120/129/121 42/65/64 1/64/63
f 122/133/125 121/78/77 70/4/4 69/3/3
f 119/89/88 120/129/121 63/132/124 64/113/107
f 42/65/64 120/129/121 67/126/118 7/72/71
f 5/121/115 39/50/49 79/33/32 45/53/52
f 65/134/126 122/133/125 44/135/93 3/136/92
f 123/131/123 118/128/120 117/88/87 124/17/16
f 121/78/77 122/133/125 65/134/126 66/96/94
f 44/135/93 122/133/125 69/3/3 9/28/27
f 123/131/123 126/130/122 34/71/70 33/69/68
f 124/17/16 125/16/15 126/130/122 123/131/123
f 34/71/70 126/130/122 30/22/21 10/83/82
f 84/46/45 91/68/67 19/105/102 48/73/72
